<svg height="64" viewBox="0 0 64 64" width="64" 
  xmlns="http://www.w3.org/2000/svg">
  <path d="m46.3846154 57.6153846h-30c-.812508 0-1.515624.1826902-2.109372.5480773-.59376.3653863-.890628.7980739-.890628 1.2980766s.296868.9326902.890628 1.2980769c.593748.3653864 1.296864.5480769 2.109372.5480769h30c.812508 0 1.515624-.1826905 2.109372-.5480769.59376-.3653867.890628-.7980742.890628-1.2980769s-.296868-.9326903-.890628-1.2980766c-.593748-.3653871-1.296864-.5480773-2.109372-.5480773zm-11.0769231-55.6153846c2.583344 0 5.08332.31468129 7.5.94405997 2.41668.62937063 4.70832 1.51048146 6.875 2.64334859-3.125016 1.00700106-5.989568 2.4755191-8.593752 4.40560246-2.604176 1.93007528-4.854152 4.18529658-6.75 6.76572818-1.89584 2.5804317-3.374992 5.433549-4.437496 8.5594406-.2831072.8329026-.5284967 1.6784619-.7361688 2.5366798.8367453-.4311457 1.710128-.815274 2.6209593-1.1510152 2.3859743-.8794929 4.9187467-1.319229 7.5983806-1.319229s5.2124062.4397361 7.5983806 1.319229c2.3859743.879493 4.5149727 2.0910228 6.3870445 3.6346171 1.8720718 1.5435944 3.4137581 3.365376 4.6251012 5.4653864 1.2113431 2.1000103 1.9821862 4.3705019 2.3125506 6.8115367l-.0506923-.3363846 1.743.0007203c.4814862 0 .9053503.1574684 1.2716035.4724166l.1346445.1254875c.39584.3986.593752.870622.593752 1.4160819s-.197912 1.0174818-.593752 1.4160819c-.395832.3986081-.864576.5979041-1.406248.5979041h-60c-.5416696 0-1.0104144-.199296-1.40625-.5979041-.39583528-.3986001-.59375-.870622-.59375-1.4160819s.19791472-1.0174819.59375-1.4160819c.3958356-.3986081.8645804-.5979041 1.40625-.5979041h3.62018831c-.416664-1.4265788-.739576-2.8950969-.968744-4.4055944-.229168-1.5104976-.343752-3.0629263-.343752-4.6573427 0-4.3216998.812488-8.3706092 2.437504-12.1468491 1.625008-3.7762479 3.84372799-7.0804095 6.65624799-9.9125894 2.812512-2.832188 6.093728-5.06642353 9.843752-6.70279522 3.750016-1.63637975 7.770808-2.45454948 12.062496-2.45454948zm4.6068848 26.8380609-.5299617-.0072917c-2.1290266 0-4.1478965.3499983-6.0566802 1.0500018-1.9087837.7000034-3.6248248 1.6692204-5.1481799 2.9076923l.2312725-.1833083c-.0688904.8636404-.1033355 1.7388446-.1033355 2.6256142 0 1.2167859.083336 2.412578.25 3.5874086.166664 1.1748386.375 2.3286673.625 3.4615425l27.3637167-.0006211c-.4152916-1.8453678-1.1161838-3.5550508-2.1026825-5.1291009-1.0461574-1.6692342-2.330896-3.1230701-3.8542511-4.361535-1.523355-1.2384719-3.2393962-2.2076889-5.1481799-2.9076923-1.9087836-.7000035-3.9276535-1.0500018-6.0566801-1.0500018zm22.2672378-4.6842147c.5034995 0 .9230741.1864823 1.258738.559447.3729647.335664.5594471.7552385.5594471 1.258738s-.1864824.9230741-.5594471 1.258738l-2.517476 2.517476c-.3356639.3729648-.7552385.5594471-1.258738.5594471s-.923074-.1864823-1.258738-.5594471c-.3729647-.3356639-.5594471-.7552385-.5594471-1.258738s.1864824-.923074.5594471-1.258738l2.517476-2.517476c.335664-.3729647.7552385-.559447 1.258738-.559447zm-22.1818149-9.8461539c.5000049 0 .9326917.182688 1.2980751.5480788.3653907.3653834.5480787.7980701.5480787 1.2980751v3.6923076c0 .500005-.182688.9326917-.5480787 1.2980751-.3653834.3653908-.7980702.5480788-1.2980751.5480788s-.9326917-.182688-1.2980751-.5480788c-.3653907-.3653834-.5480787-.7980701-.5480787-1.2980751v-3.6923076c0-.500005.182688-.9326917.5480787-1.2980751.3653834-.3653908.7980702-.5480788 1.2980751-.5480788zm-29.3846154 28.3076923c-.70833598-1.6028524-1.21875198-3.068588-1.53124798-4.3972715-.312504-1.3286754-.468752-2.7522417-.468752-4.2707232 0-4.0914857.489576-7.5502141 1.46875198-10.3762905.979168-2.8260845 2.249992-5.1986815 3.812496-7.1178883 1.562512-1.9191987 3.28124-3.5114825 5.156256-4.7768837 1.875008-1.2654094 3.729152-2.42535113 5.562496-3.4798576 2.66668-1.26540938 5.479152-2.04573072 8.437504-2.34098832 2.958344-.2952657 5.479152-.18981424 7.562496.31634627-2.04168.97014368-4.03124 2.44643168-5.968752 4.42890445-1.937504 1.9824728-3.65624 4.2918039-5.156248 6.9280741-1.500008 2.6362621-2.708328 5.525564-3.625 8.6679947s-1.375 6.37972-1.375 9.7119568c0 1.1388693.05208 2.2671699.156248 3.3849505.104168 1.1177725.239584 2.2249925.406256 3.3216763zm41.7692308 7.3846154h-42c-.81250802 0-1.51562402.182688-2.10937202.5480788-.59376.3653834-.890628.7980701-.890628 1.298075 0 .500005.296868.9326917.890628 1.2980751.593748.3653908 1.296864.5480788 2.10937202.5480788h42c.812508 0 1.515624-.182688 2.109372-.5480788.59376-.3653834.890628-.7980701.890628-1.2980751 0-.5000049-.296868-.9326916-.890628-1.298075-.593748-.3653908-1.296864-.5480788-2.109372-.5480788z" fill="#fff" fill-rule="evenodd"/>
</svg>
