<svg height="64" viewBox="0 0 64 64" width="64" 
  xmlns="http://www.w3.org/2000/svg">
  <path d="m34 58h-20c-.541672 0-1.010416.1979144-1.406248.5937504-.39584.3958352-.593752.86458-.593752 1.4062496s.197912 1.0104144.593752 1.40625c.395832.3958353.864576.59375 1.406248.59375h20c.541672 0 1.010416-.1979147 1.406248-.59375.39584-.3958356.593752-.8645804.593752-1.40625s-.197912-1.0104144-.593752-1.4062496c-.395832-.395836-.864576-.5937504-1.406248-.5937504zm28-16h-29.125c-.25-1.125008-.458336-2.270824-.625-3.437504-.166664-1.166672-.25-2.35416-.25-3.562496 0-3.458352.531248-6.739568 1.593752-9.843752s2.541656-5.937488 4.437496-8.5c1.895848-2.562512 4.145824-4.802072 6.75-6.718744 2.604184-1.91668 5.468736-3.375 8.593752-4.375008-2.16668-1.125-4.45832-1.999992-6.875-2.624992-2.41668-.625008-4.916656-.937504-7.5-.937504-4.291688 0-8.31248.812488-12.062496 2.437504-3.750024 1.625008-7.03124 3.843728-9.843752 6.656248-2.81252 2.812512-5.03124 6.093728-6.656248 9.843752-1.625016 3.750016-2.437504 7.770808-2.437504 12.062496 0 1.583344.114584 3.124992.343752 4.625s.55208 2.958328.968744 4.375h-7.312496c-.5416696 0-1.0104144.197912-1.40625.593752-.39583528.395832-.59375.864576-.59375 1.406248s.19791472 1.010416.59375 1.406248c.3958356.39584.8645804.593752 1.40625.593752h60c.541672 0 1.010416-.197912 1.406248-.593752.39584-.395832.593752-.864576.593752-1.406248s-.197912-1.010416-.593752-1.406248c-.395832-.39584-.864576-.593752-1.406248-.593752zm-48 0c-.708336-1.583344-1.218752-3.03124-1.531248-4.343752-.312504-1.312504-.468752-2.718744-.468752-4.218744 0-4.041688.489576-7.45832 1.468752-10.25.979168-2.791688 2.249992-5.135408 3.812496-7.031256 1.562512-1.89584 3.28124-3.468744 5.156256-4.718744 1.875008-1.250008 3.729152-2.395832 5.562496-3.437504 2.66668-1.250008 5.479152-2.020832 8.437504-2.312496 2.958344-.291672 5.479152-.187504 7.562496.312496-2.04168.958336-4.03124 2.416656-5.968752 4.375-1.937504 1.958344-3.65624 4.239568-5.156248 6.843752-1.500008 2.604176-2.708328 5.458312-3.625 8.562496s-1.375 6.302072-1.375 9.593752c0 1.125008.05208 2.239576.156248 3.343752.104168 1.104168.239584 2.197912.406256 3.281248zm24 8h-28c-.541672 0-1.010416.197912-1.406248.593752-.39584.395832-.593752.864576-.593752 1.406248s.197912 1.010416.593752 1.406248c.395832.39584.864576.593752 1.406248.593752h28c.541672 0 1.010416-.197912 1.406248-.593752.39584-.395832.593752-.864576.593752-1.406248s-.197912-1.010416-.593752-1.406248c-.395832-.39584-.864576-.593752-1.406248-.593752z" fill="#1e252d" fill-rule="evenodd"/>
</svg>
