<svg height="64" viewBox="0 0 64 64" width="64" 
  xmlns="http://www.w3.org/2000/svg">
  <path d="m9.28571429 9.42857143c6.28574171-6.28574172 13.85709711-9.42857143 22.71428571-9.42857143s16.4047269 3.11901257 22.6428526 9.35714743c6.2381348 6.23812567 9.3571474 13.78566397 9.3571474 22.64285257s-3.1190126 16.4047269-9.3571474 22.6428526c-6.2381257 6.2381312-13.785664 9.3571474-22.6428526 9.3571474s-16.4047269-3.1190162-22.64285257-9.3571474c-6.2381312-6.2381257-9.35714743-13.785664-9.35714743-22.6428526s3.09520731-16.3809189 9.28571429-22.57142857zm22.71428571 7.57142857c4.1518071 0 7.6897157 1.4620371 10.6138371 4.3861629 2.9241258 2.9241214 4.3861629 6.46203 4.3861629 10.6138371s-1.4620371 7.6897157-4.3861629 10.6138371c-2.9241214 2.924124-6.46203 4.3861629-10.6138371 4.3861629s-7.6897157-1.4620389-10.6138371-4.3861629c-2.924124-2.9241214-4.3861629-6.46203-4.3861629-10.6138371s1.4508784-7.6785557 4.3526786-10.5803571c2.9464414-2.9464415 6.4955143-4.4196429 10.6473214-4.4196429zm0 42.4285714c7.6190903 0 14.0952137-2.6666404 19.4285714-8 5.3333577-5.3333577 8-11.8094811 8-19.4285714s-2.6666423-14.0952137-8-19.4285714c-5.3333577-5.33335774-11.8094811-8.00000003-19.4285714-8.00000003z" fill="#646c76" fill-rule="evenodd"/>
</svg>
