<svg height="64" viewBox="0 0 64 64" width="64" 
  xmlns="http://www.w3.org/2000/svg">
  <path d="m32 10.5714286c.5777835 0 1.0777771-.2120486 1.4999979-.63616289.4222293-.42410571.6333354-.92633142.6333354-1.50669428v-4.28571429c0-.58036285-.2111061-1.08258857-.6333354-1.50669428-.4222208-.42411429-.9222144-.63616286-1.4999979-.63616286s-1.0777771.21204857-1.4999979.63616286c-.4222293.42410571-.6333354.92633143-.6333354 1.50669428v4.28571429c0 .58036286.2111061 1.08258857.6333354 1.50669428.4222208.42411429.9222144.63616289 1.4999979.63616289zm-20.8666624 25.7142857c.4888832-2.4553714 1.366656-4.7209714 2.6333269-6.7968772 1.266671-2.0758971 2.8222123-3.88392 4.6666667-5.4241028 1.8444544-1.5401914 3.9222101-2.7455314 6.2333355-3.6160714 2.3111253-.87054 4.7555413-1.3058058 7.3333333-1.3058058s5.022208.4352658 7.3333333 1.3058058c2.3111254.87054 4.3888811 2.07588 6.2333355 3.6160714 1.8444544 1.5401828 3.3999957 3.3482057 4.6666667 5.4241028 1.2666709 2.0759058 2.1444437 4.3415058 2.6333269 6.7968772h4.4666709c-.4-3.0357257-1.3333248-5.85936-2.8-8.47098s-3.3333248-4.8772286-5.6-6.7968772c-2.2666666-1.9196485-4.844433-3.4263342-7.7333333-4.5200914-2.8889003-1.0937571-5.9555413-1.6406228-9.2-1.6406228s-6.3110997.5468657-9.2 1.6406228c-2.8889003 1.0937572-5.4666581 2.6004429-7.7333333 4.5200914-2.2666752 1.9196486-4.1333248 4.1852572-5.60000003 6.7968772-1.46667435 2.61162-2.3999983 5.4352543-2.8 8.47098zm46.4666624-16.2723257 2.9999957-3.0133886c.4444502-.4017857.6666752-.9040114.6666752-1.5066943 0-.6026828-.222225-1.1049086-.6666752-1.5066943-.4-.4464343-.8999936-.6696514-1.4999978-.6696514-.6000043 0-1.0999979.2232171-1.4999979.6696514l-2.9999957 3.0133886c-.4444502.4017857-.6666752.9040114-.6666752 1.5066943 0 .6026828.222225 1.1049086.6666752 1.5066943.4.4464343.8999936.6696514 1.4999978.6696514.6000043 0 1.0999979-.2232171 1.4999979-.6696514zm-4.2666667 37.7008971h-42.6666666c-.5777835 0-1.0777771.2120512-1.4999979.6361612-.42222933.4241091-.63333547.9263357-.63333547 1.506696 0 .5803602.21110614 1.0825868.63333547 1.5066964.4222208.4241092.9222144.6361607 1.4999979.6361607h42.6666666c.5777835 0 1.0777771-.2120515 1.4999979-.6361607.4222293-.4241096.6333355-.9263362.6333355-1.5066964 0-.5803603-.2111062-1.0825869-.6333355-1.506696-.4222208-.42411-.9222144-.6361612-1.4999979-.6361612zm8.5333334-17.1428571h-59.73333337c-.5777809 0-1.07777536.2120485-1.5.6361628-.42222429.4241057-.63333333.9263315-.63333333 1.5066943 0 .5803629.21110904 1.0825886.63333333 1.5066943.42222464.4241143.9222191.6361629 1.5.6361629h59.73333337c.5777834 0 1.077777-.2120486 1.4999978-.6361629.4222294-.4241057.6333355-.9263314.6333355-1.5066943 0-.5803628-.2111061-1.0825886-.6333355-1.5066943-.4222208-.4241143-.9222144-.6361628-1.4999978-.6361628zm-55.4666667-20.55804c.40000171.4464343.89999701.6696514 1.49999957.6696514.60000342 0 1.09999616-.2232171 1.49999616-.6696514.44445014-.4017857.66667517-.9040115.66667517-1.5066943 0-.6026829-.22222503-1.1049086-.66667517-1.5066943l-2.99999573-3.0133886c-.40000171-.4464343-.89999701-.6696514-1.49999957-.6696514-.60000342 0-1.09999872.2232171-1.50000043.6696514-.44444672.4017857-.66666667.9040115-.66666667 1.5066943 0 .6026829.22221995 1.1049086.66666667 1.5066943zm53.3333333 29.1294685h-55.46666663c-.57778091 0-1.07777536.2120486-1.49999958.6361629-.42222506.4241057-.63333376.9263314-.63333376 1.5066943 0 .5803628.2111087 1.0825886.63333376 1.5066943.42222422.4241143.92221867.6361628 1.49999958.6361628h55.46666663c.5777835 0 1.0777771-.2120485 1.4999979-.6361628.4222293-.4241057.6333355-.9263315.6333355-1.5066943 0-.5803629-.2111062-1.0825886-.6333355-1.5066943-.4222208-.4241143-.9222144-.6361629-1.4999979-.6361629z" fill="#fff" fill-rule="evenodd"/>
</svg>
