<svg height="512" viewBox="0 0 512 512" width="512" xmlns="http://www.w3.org/2000/svg"><g fill="#1e252d" fill-rule="nonzero" transform="translate(104.521484 83)"><path d="m240.847264 51.5075533c20.479699 4.7100101 37.190541 12.6300782 50.132524 23.7602046 22.436652 19.2955558 33.654978 47.3667741 33.654978 84.2136541 0 23.765148-5.500247 44.532399-16.500742 62.301753-11.000494 17.769353-26.84774 31.55968-47.541739 41.370979-20.693999 9.8113-45.308966 14.71695-73.844902 14.71695l-20.258336-.327044-.780011-.025901c-5.484697-.181263-10.342324-.323298-14.572879-.426106l19.273837-48.464449.000022 15.230995.001696.68747c.03731 7.506153.690239 13.163776 1.958788 16.972869 1.306989 3.92452 3.648678 6.649881 7.025068 8.176083 3.376389 1.526202 8.549889 2.289303 15.520499 2.289303 21.565325 0 37.140282-9.320735 46.724871-27.962204s14.376884-46.385644 14.376884-83.232524c0-36.846881-4.955668-64.154998-14.867005-81.9243516-2.120647-3.8019632-4.49808-7.1971888-7.132299-10.185677z"/><path d="m94.9142949 46.0859375 41.3107051 92.6479995-35.179 88.146001-70.2806768-159.5765112.0005837 146.7399562c.0221826 15.67286.6765694 26.984569 1.9631603 33.935126 1.3091627 7.072496 4.2002303 12.240859 8.6732028 15.505088 4.4729726 3.264229 11.9461096 5.657997 22.4194111 7.181304v6.528458c-8.9459451-.652845-21.1647968-.979268-36.6565553-.979268l-.841688.000582c-11.1627991.015535-19.93727834.341764-26.3234378.978686v-6.528458c6.76400723-1.523307 11.7824642-3.862671 15.0553709-7.018092 3.2729067-3.155422 5.4548446-7.997362 6.5458135-14.52582s1.6364533-16.321146 1.6364533-29.378062v-139.0561608c0-8.2693804-.6000329-14.2538005-1.8000987-17.9532602-1.2000658-3.6994596-3.3274551-6.2020353-6.3821681-7.507727-3.0547129-1.3056916-8.07316989-2.1761527-15.0553709-2.6113833v-6.5284582c5.95073949.5934962 13.9752215.9172214 24.0734461.9711756l3.0916797.0080931c26.1832538 0 48.7663101-.3264229 67.7491691-.9792687z"/><path d="m214.064396 0h23.82037l-138.1581461 347h-23.8203699z"/></g></svg>