<svg height="500" viewBox="0 0 500 500" width="500" 
  xmlns="http://www.w3.org/2000/svg">
  <g style="fill:none;fill-rule:evenodd;stroke-linecap:round;stroke-linejoin:round;stroke:var(--logo-color);stroke-width:20">
    <path d="m26.1342158 364.096268c18.4570292-135.087374-17.14372775 133.073808 6.3518048-87.54191 4.9746273-46.710199 15.2902267-92.107155 19.4093005-138.985098 1.8875318-21.481434.9638366-57.4208194 9.436967-79.4682767 1.3233573-3.4434337 1.8366569 7.219634 1.8873934 10.9108092.1875058 13.6413732-1.3074956 27.2689467-1.1750838 40.9109725.0961855 9.909736.7617072 19.823263 1.8601714 29.671745 1.0562472 9.469978 3.4892414 18.747957 4.5959844 28.212105.8996338 7.693084-.0547819 15.590879 1.4155451 23.194592 2.1682127 11.212791 5.5182255 22.206789 9.436967 32.928566 2.0869686 5.71 5.2105632 11.018817 8.4932704 16.129023 1.6302256 2.53778 3.3234413 5.572673 6.1340285 6.641362.9254592.351893 6.0644575-3.301007 13.6836025-19.125846 15.54438-32.285422 28.926341-64.017278 35.615476-99.661483 1.44882-7.720286-.212688-15.780382.943697-23.55038 1.520262-10.2149653.550487-38.1628896 7.050503-30.1643731 8.306764 10.2217882 7.832077 68.7831931 9.577615 84.2896501 3.25415 28.908202 9.607862 57.45191 11.918707 86.451741 10.972209 137.695127-5.52106 64.937522 5.380886 111.06036"/>
    <path d="m265.002706 35.4257812c3.490533 13.85219 4.007523 13.300285 1.903539 34.4671653-15.962121 160.5849925-7.016912 150.6732785-45.496874 267.3867485-2.016303 6.115642-6.118871 11.412763-8.187511 17.511176-16.535002 48.745683-9.048849 39.78485-25.525769 79.036933-4.298899 10.241037-18.059395 21.701761-12.04963 33.597977"/>
    <path d="m299.151051 102.425781c-1.279036 47.222778-2.071269 94.458833-3.83711 141.668333-.970927 25.957591-3.959205 51.844825-4.372521 77.81499-.449572 28.248204 4.878065 46.303938-5.790369 72.516677"/>
    <path d="m306.782602 103.425781c13.544747 2.851651 27.418805 4.425972 40.634241 8.554953 20.628029 6.444942 57.645614 36.673023 67.679818 44.844951 58.462804 47.612526 100.703652 139.74036 34.173833 200.566108-27.148721 24.821069-60.890521 46.046009-98.691594 48.002789-13.423083.694849-48.885352-10.465789-53.427849-8.655491"/>
  </g>
</svg>