<svg height="512" viewBox="0 0 512 512" width="512" 
  xmlns="http://www.w3.org/2000/svg">
  <g fill="var(--logo-color)" fill-rule="nonzero">
    <path d="m372.371439 75.9996773c30.217766 6.9496474 54.874599 18.6357223 73.970497 35.0582247 33.105376 28.470676 49.658064 69.88988 49.658064 124.257611 0 35.065579-8.115638 65.707747-24.346915 91.926505s-39.613958 46.566445-70.148042 61.04306c-30.534085 14.476615-66.853576 21.714922-108.958472 21.714922l-29.891262-.482554-.914431-.030395c-8.189717-.271197-15.436072-.48338-21.739065-.636549l28.438-71.507825.000902 22.471725.001367.751196c.041012 11.206378 1.00479 19.641948 2.891335 25.30671 1.928469 5.790646 5.383642 9.811928 10.365519 12.063846s12.615398 3.377877 22.900563 3.377877c31.819731 0 54.800648-13.752784 68.94275-41.258352 14.142102-27.505569 21.213154-68.442219 21.213154-122.80995 0-54.367732-7.31211-94.660977-21.93633-120.879735-3.129156-5.610049-6.637233-10.619905-10.524229-15.029567z"/>
    <path d="m157.046452 68 60.953548 136.702-51.906 130.061-103.6996326-235.4565028.0005151 216.2392528c.0254122 23.268715.9910781 40.051253 2.8969977 50.347612 1.9316752 10.435499 6.1974579 18.06144 12.7973482 22.877824 6.5998903 4.816385 17.6265363 8.3484 33.0799376 10.596046v9.632768c-13.1997803-.963277-31.2287489-1.444915-54.0869055-1.444915l-.9618834.000514c-16.6041089.017832-29.6442346.499299-39.1203771 1.444401v-9.632768c9.9803219-2.247646 17.3850769-5.699388 22.2142649-10.355226s8.0486467-11.800142 9.658376-21.43291 2.414594-24.081921 2.414594-43.347458v-205.177966c0-12.201506-.8853511-21.0315439-2.6560534-26.4901127-1.7707023-5.4585687-4.9096745-9.1511299-9.4169166-11.0776836-4.5072422-1.9265537-11.9119971-3.2109228-22.2142649-3.8531073v-9.6327684c8.7803418.8757062 20.6204998 1.3533641 35.5204738 1.4329738l4.5617867.0119415c38.6335042 0 71.9549015-.4816385 99.9641915-1.4449153z"/>
    <path d="m332.852941 0h35.147059l-203.852941 512h-35.147059z"/>
  </g>
</svg>
