<svg height="512" viewBox="0 0 512 512" width="512" 
  xmlns="http://www.w3.org/2000/svg">
  <g fill="var(--logo-color)" fill-rule="nonzero">
    <path d="m64.5050911 53.2369803c3.9132577-.8552822 7.3682561.5868026 9.6479197 3.0292211 1.0278292 1.1012103 1.6482251 2.1836001 2.1266731 3.3503531.6895109 1.6814553.9966188 3.3571147 1.2612248 5.7350019.2753728 2.4746433.4592629 5.8039756.5154882 8.4523699l.0208993 1.444162c.0480921 4.7563915-.0674509 9.0937474-.3871872 16.0818806l-.4273073 8.9596721c-.3157701 6.887369-.4129178 10.653812-.3696394 15.112666.084216 8.676547.6242805 17.600785 1.5984083 26.813838l.2006067 1.846473c.3685873 3.304637.8186946 6.094078 1.837651 11.593829l1.0434463 5.612542c.8729264 4.773697 1.3106079 7.547375 1.7088324 10.952733l.1121544 1.023532c.2523993 2.476488.350387 4.831932.4068458 8.514088l.0407918 2.970882c.0806756 5.027335.242375 7.367542.741561 9.949054 1.9104661 9.879868 4.8960934 20.135332 9.0111603 31.394261 1.1635335 3.183457 2.7639844 6.38367 5.0999671 10.279833l.4254482.704226.1429165-.238073c1.1399409-1.923903 2.3586069-4.180115 3.6385139-6.772481l.60167-1.234187 1.153829-2.404767c17.910813-37.460873 28.050226-64.959538 33.643284-94.763106l.075303-.420652c.369396-2.170997.436988-4.356283.343858-8.929155l-.061929-2.929886c-.075605-4.402562.007691-7.105077.418791-10.157857l.151835-1.068207c.207236-1.513508.371996-3.572879.589189-7.199522l.323442-5.5920651.143269-2.2824335c.421739-6.3785837.891134-10.3865562 1.769973-13.7665745 1.085767-4.1758618 2.616693-7.2001391 6.291189-9.3755798 3.216384-1.9042212 7.021742-2.0491148 10.347409-.5756495 2.11835.938553 3.746445 2.343223 5.190861 4.1206315 5.847237 7.1952471 8.082425 22.0225945 9.661037 48.9871999l.218132 3.908961c.113259 2.129284.222682 4.347547.333493 6.740087l.766501 17.682907c.276983 6.074395.509001 9.794376.775129 12.158516l.394929 3.40565c.921822 7.709683 1.996884 15.044536 4.007242 27.73464l2.223633 13.981271c2.858227 18.178674 4.227658 28.45241 5.203994 40.18024l.120074 1.474229c4.66147 58.498857 4.987328 84.36812 2.352373 93.450424-.138211.476394-.28772.930608-.449687 1.366648l-.129253.334791.426828 1.885355 2.94406 12.517181c1.270416 5.374745-2.0568 10.761713-7.431545 12.032128-5.374746 1.270416-10.761713-2.0568-12.032129-7.431545l-2.909283-12.346969c-1.19664-5.153552-1.08187-4.968733-1.218186-6.533119-.236344-2.712327.230923-5.051651 1.454132-7.267844l.191123-.335187.02513-.107909c.152543-.68313.319774-1.882892.459957-3.684702l.024449-.324234c.203542-2.785562.304765-6.489831.282513-11.224013l-.021513-2.453432c-.181052-14.373347-1.357299-36.001018-3.743098-66.237445l-.238349-2.987137c-.956652-11.654393-2.326406-21.844235-5.322016-40.806937l-2.409545-15.156227c-1.9123-12.159043-2.938474-19.349826-3.876695-27.44564l-.259545-2.297281c-.275968-2.626227-.498375-6.093247-.746387-11.302863l-.151901-3.31518-.082704.347136c-6.345947 26.233174-16.375314 51.896194-31.982805 84.547702l-1.220259 2.543528c-3.747466 7.783426-7.330737 13.640169-10.653275 17.661039-1.570941 1.901123-3.110294 3.423788-4.639767 4.55417-.992412.733459-2.020517 1.33782-3.161095 1.791838-2.340334.931592-4.8538354 1.245668-7.7936421.127846-4.3788148-1.664986-6.9029586-4.289232-9.7195246-8.589844l-1.2739931-1.993868c-4.4354963-6.904758-7.3366146-12.258501-9.471989-18.10094-4.4565632-12.193271-7.7322992-23.445242-9.8627739-34.462873l-.1314483-.700623c-.6503105-3.580124-.8606587-6.606494-.9588546-11.986928l-.0587891-4.053627c-.0505989-3.045184-.1342101-4.88994-.325692-6.697521l-.0880454-.773146-.0353433-.284889-.5555445 4.033595c-1.3726023 9.780827-3.1118716 21.028359-5.4254402 35.433549l-2.9503292 18.35697c-3.6471522 22.920586-5.4264668 35.499555-7.0250022 50.323418l-1.3927195 13.141508c-.7742858 7.359641-1.4811113 14.169939-2.1220798 20.442341l-1.1438846 11.318619 3.694246 1.177043.0896715 1.107486.0026845.351547-.0020312.125356-.0713164 1.013899c-.0013518.006232-.0025456.007016-.0039951.007969l-1.553323 11.107546c-1.0118658 7.304978-2.3449468 17.001762-3.9987728 29.106148-.2280942 1.669426-.8558953 3.186006-1.7736686 4.466387l-.1434949.193619-.0470423.140889-.1077498.296329c-.3710748.987553-.7813922 1.83596-1.5465177 2.847552-1.0909316 1.442349-2.4849926 2.659235-4.6756659 3.44299-3.6666252 1.311805-7.5957745.372935-10.2714027-2.137606-1.3742645-1.289472-2.1129633-2.596418-2.6160321-3.99134-.2295913-.636616-.3739653-1.215417-.4782424-1.796178-.1135158-.632215-.1707077-1.224374-.2022543-1.868392-.0363148-.741362-.0375871-1.605786-.0098648-2.653089l.032342-.982288c.3744874-9.656902 2.9074187-36.76878 8.0169776-84.879241l.6753684-6.284325c1.641064-14.837904 3.5279639-27.920062 7.309617-51.590644l3.0895516-19.213969c4.6277991-28.954397 6.7940819-44.537588 8.4209375-62.30842l.3230779-3.6725c.2709668-3.331416.4873997-7.055562.7661714-12.868385l.6613851-13.870597c.2642681-5.218394.4474448-8.028858.7721012-12.296143l.1507321-1.915275c1.364846-16.7699393 3.6246739-29.6272922 7.6093978-39.9957184.3450179-.8977519.7584316-1.736343 1.3583917-2.6006189 1.3789313-1.9864274 3.302582-3.5975811 6.2997762-4.2526484z"/>
    <path d="m251.21663 191.903915.780368-9.126564c1.772957-20.497811 6.158241-70.582575 9.110622-101.1756977l1.090708-11.1738179c.835486-8.8422708.967583-12.3318101.634549-15.2445321l-.18207-1.4553967c-.06317-.701759.000605-.3744977-2.495947-10.2820658-1.349486-5.3554394 1.897981-10.7908557 7.25342-12.1403421 5.264669-1.3266137 10.606627 1.7892171 12.068223 6.9829379l1.673582 6.5804714c.063987.256197.116975.4702289.154962.6265842l.252206 1.0586002c.397834 1.7070461.685938 3.1450592.906443 4.5751095l.064166.4290373c.779123 5.3758192.640745 9.855861-.589555 22.5391447l-.911373 9.3030748c-3.468834 35.9294233-8.953632 99.2352813-9.794054 109.1165583l-.109844 1.303581-.295645 3.115332c-1.734173 17.946193-3.387951 30.961616-5.636095 43.704053l-.132792.748475c-4.68201 26.244158-11.974296 52.039505-29.302952 104.599006l-.219706.651702c-.957293 2.775109-2.006897 4.972723-4.096334 8.880723l-1.250606 2.333233c-1.471005 2.770847-2.117946 4.164038-2.648004 5.726664l-1.400881 4.143142c-4.733789 14.05657-6.287717 19.373403-9.893 33.273607l-1.787488 6.904236-.119859.452268c-2.522721 9.483505-5.504975 17.994574-11.949634 33.430611l-.624341 1.491289c-1.374126 3.273506-2.455024 5.101612-6.037593 10.458117l-1.545252 2.306325c-4.826186 7.267894-5.825201 10.186115-4.814768 12.344767l.053101.109125c2.490311 4.929523.512939 10.944487-4.416584 13.434797-4.929523 2.490311-10.944487.512939-13.434798-4.416584-3.206087-6.346389-3.296818-13.000635-.960413-19.693707 1.428595-4.092479 3.272088-7.370063 6.780203-12.645338l2.324714-3.475549c2.117661-3.191041 2.887509-4.495981 3.508007-5.923608l.696051-1.657598c6.027895-14.43398 8.73352-22.111454 10.984865-30.497705l.332971-1.256163.825867-3.213119c.443327-1.741508 1.060766-4.168386 1.321814-5.177778.789532-3.052872 1.544936-5.855275 2.412801-8.914387l.580188-2.024265c1.978796-6.835501 4.415031-14.575675 7.58101-23.974922l.643006-1.902194c1.054166-3.107712 2.109611-5.309115 4.4725-9.708872l1.01194-1.888351c1.439403-2.713505 2.100599-4.132942 2.614883-5.650181l2.059993-6.263039c15.453535-47.150103 22.174-71.192332 26.474173-95.016534l.382723-2.156283c2.207588-12.651992 3.831699-25.802385 5.599529-44.567978z"/>
    <path d="m303.990933 98.0023074.279906.0037381c1.730488.0468706 3.346364.5306749 4.744854 1.3429157 1.478312-.4026119 3.072784-.4696239 4.676136-.1320613l2.302532.4737553c1.532501.3074627 3.11966.6097368 5.119664.9761858l10.5806 1.901606c10.892154 1.986441 16.607096 3.27362 23.553449 5.443912 8.285556 2.588707 18.520599 8.175678 30.628251 16.244222 3.717966 2.477654 7.570025 5.164361 11.537688 8.035409l1.868446 1.357868c9.226794 6.734988 16.815659 12.722189 26.978067 20.998528 32.24331 26.259182 57.596108 63.310103 67.320011 100.555925 11.340942 43.439625 1.160405 84.174881-32.713407 115.144452-33.287716 30.433725-68.251962 48.710802-104.922235 50.609046-6.08673.315081-14.190699-.947898-27.017224-3.714198l-2.923694-.637897-9.756919-2.170668c-3.003142-.660928-5.261979-1.135869-7.182373-1.503733l-.8128-.152881c-1.573025-.290079-2.830084-.486068-3.761852-.588185l-.36899-.037076-.223007-.018573-.075575.015577c-3.480166.648772-7.025858-.612175-9.324401-3.218287-2.487519 1.25392-5.484069 1.465657-8.267659.332752-5.115405-2.081941-7.574514-7.916542-5.492574-13.031947 3.775353-9.276184 5.487192-17.665928 5.891707-27.406343l.057906-1.693565c.106871-3.797842.052081-7.039609-.21228-13.471118l-.369259-8.510189c-.308977-7.414321-.40495-12.121457-.314179-17.824906l.058256-3.068856c.224886-10.147834.766893-19.727494 1.929724-36.199486l.987358-13.93411c.689032-9.951876 1.050317-16.082304 1.320998-22.728546l.140145-3.662632c.625742-16.880932 1.085896-31.826634 1.643871-53.469428l2.094797-85.166468c.012185-.452384.024474-.907301.036882-1.365419.146998-5.427249 4.59172-9.7293196 9.98718-9.7293196zm9.715817 21.6226256-.474739 18.801965-.989945 41.356082c-.726993 29.594418-1.237178 47.173789-1.970006 67.130168l-.200528 5.296376c-.319419 7.85004-.756996 14.929376-1.674414 27.894629l-.776294 10.915885c-1.119677 15.987158-1.61591 25.156743-1.805803 35.144367l-.038781 2.399789c-.055652 4.55988.025562 8.619851.26555 14.60975l.443854 10.334056c.280605 6.960288.320292 10.444775.166083 15.092322-.272993 8.227475-1.315689 15.813439-3.39741 23.451027 2.223231-.032772 4.873524.354451 8.622192 1.056832l.950891.180271c1.600802.306644 3.361035.669264 5.47681 1.12537l13.176012 2.917856 2.867192.619195c10.0945 2.147009 16.790227 3.175575 20.357338 3.042827l.206223-.009148c31.315951-1.621077 62.289965-17.812315 92.460954-45.396532 28.139812-25.727188 36.400124-58.77907 26.857228-95.331573-8.595728-32.924528-31.508145-66.409044-60.59829-90.100266l-3.835488-3.112768c-8.678061-7.014623-15.613378-12.403194-24.105967-18.548531-3.349794-2.423949-6.600563-4.701003-9.734365-6.811612l-1.169658-.783638c-10.642864-7.092409-19.478371-11.915419-25.501705-13.797327l-1.3716-.420276c-5.676378-1.703862-11.008782-2.850046-21.202558-4.691484l-9.296379-1.668737c-1.380575-.253128-2.579484-.478313-3.706397-.696875z"/>
  </g>
</svg>
