<svg height="512" viewBox="0 0 512 512" width="512" xmlns="http://www.w3.org/2000/svg"><g transform="translate(43)"><path d="m317.307013 119.555325c-44.683636 0-63.567792 21.942857-94.686753 21.942857-31.916883 0-56.253507-21.80987-94.952728-21.80987-37.9012982 0-78.3293502 23.804675-103.9958437 64.365714-36.0394805 57.184416-29.92207791 164.903896 28.4592208 256.664935 20.878961 32.847792 48.8062339 69.685195 85.3776619 70.084156h.664935c31.783897 0 41.225975-21.410909 84.978702-21.676883h.664935c43.087792 0 51.731948 21.543896 83.382857 21.543896h.664935c36.571429-.398961 65.961559-41.225974 86.84052-73.940779 15.027532-23.538702 20.612987-35.374546 32.182857-61.971948-84.446754-32.98078-98.011429-156.126754-14.495585-203.337143-25.533506-32.847792-61.307013-51.864935-95.085714-51.864935z"/><path d="m307.465974 0c-26.597403 1.86181818-57.583377 19.2831169-75.802597 42.0238961-16.49039 20.612987-30.055065 51.2-24.735585 80.8561039h2.127792c28.326234 0 57.317403-17.554286 74.206754-40.0290909 16.357402-21.4109091 28.725194-51.7319481 24.203636-82.8509091z"/></g></svg>