<svg height="512" viewBox="0 0 512 512" width="512" xmlns="http://www.w3.org/2000/svg"><path d="m460.6 512v-430.08h-10.24c-8.533361 0-15.786639-2.9866394-21.76-8.96s-8.96-13.2266394-8.96-21.76 2.986639-15.7866394 8.96-21.76 13.226639-8.96 21.76-8.96h10.24v-20.48h-358.4c-14.0800737 0-26.1332828 5.01325824-36.1599959 15.0400205-10.0267213 10.0266803-15.0400041 22.0798976-15.0400041 36.1599795v399.36c0 17.066754 5.9732738 31.573271 17.92 43.52 11.9467295 11.946726 26.453246 17.92 43.52 17.92zm-20.48-409.6v389.12h-286.72v-389.12h81.92v225.28l61.44-61.44 61.44 61.44v-225.28zm-307.2 389.12h-20.48c-11.520057 0-21.2266271-3.946627-29.1200041-11.839996-7.8933688-7.893377-11.8399959-17.599947-11.8399959-29.120004v-358.4c4.2666885 3.4133606 8.9599754 5.9733606 14.08 7.68 5.1200246 1.706639 10.6666394 2.56 16.64 2.56h30.72zm-30.72-471.04h307.2s-1.706639 3.0932992-5.12 9.2799795-5.12 13.1199795-5.12 20.8000615c0 7.68 1.706639 14.8266188 5.12 21.4399385 3.413361 6.6134016 5.12 9.9200205 5.12 9.9200205h-307.2c-8.533377 0-15.7866394-2.9866394-21.76-8.96s-8.96-13.2266394-8.96-21.76 2.9866394-15.7866394 8.96-21.76 13.226623-8.96 21.76-8.96zm153.6 81.92h81.92v176.000041l-40.96-40.96-40.96 40.96z" fill-rule="evenodd"/></svg>