<svg height="512" viewBox="0 0 512 512" width="512" xmlns="http://www.w3.org/2000/svg"><g><path d="m239.130286 310.784c-17.510857-11.836571-35.133715-23.507429-52.642286-35.348571-2.32-1.569143-3.92-1.682286-6.288-.033143l-44.424 29.890285c35.613714 23.741715 106.509714 71.069715 106.509714 71.069715v-61.469715c-.013714-1.398857-1.774857-3.177142-3.155428-4.108571zm-52.739429-72.308571c17.661714-11.611429 35.258286-23.324572 52.696-35.268572 1.698286-1.163428 3.171429-4.010286 3.198857-6.096v-59.092571s-70.894857 46.998857-106.585143 70.790857c15.657143 10.467428 30.481143 20.472 45.470858 30.220571 1.165714.756572 3.881142.324572 5.219428-.554285zm85.424-35.785143c18.066672 12.234796 36.210655 24.355039 54.430857 36.36 1.046857.690285 3.337143.688 4.387429 0l45.429714-30.248-106.348571-71.106286v60.971429c.011428 1.372571.92 3.224 2.100571 4.022857zm-13.404571 24.017143c-1.382857-.916572-4.126857-.603429-5.420572.192-5.505143 3.385142-10.814857 7.089142-16.187428 10.691428-9.426286 6.32-28.978286 19.454857-28.978286 19.454857l44.390857 29.56c1.997714 1.322286 5.069714 1.394286 7.154286.126857l44.587428-29.706285c.001143 0-38.947428-25.944-45.546285-30.318857zm-133.838857 7.710857v45.267428l33.853714-22.672z"/><path d="m256 0c-141.385143 0-256 114.614857-256 256s114.614857 256 256 256 256-114.614857 256-256-114.614857-256-256-256zm158.857143 302.864c0 6.611429-3.030857 11.277714-8.584 14.964571-47.02706 31.218168-93.993245 62.527941-140.898286 93.929143-6.690286 4.477715-12.770286 4.290286-19.410286-.156571-46.609142-31.216-93.393142-62.338286-140.142857-93.344-5.8399997-3.873143-8.6788569-8.636572-8.6788569-15.691429v-91.118857c0-7.018286 2.8811429-11.808 8.7131429-15.675428 46.749714-31.005715 93.644571-62.129143 140.256-93.344 6.649143-4.4525719 12.678857-4.579429 19.357714-.108572 46.900084 31.397008 93.856732 62.70944 140.869715 93.937143 5.346285 3.549714 8.517714 7.934857 8.517714 14.468571z"/><path d="m324.853714 275.696c-17.207258 11.678235-34.497603 23.233577-51.869714 34.665143-2.756571 1.814857-3.300571 3.792-3.269714 7.073143v58.681143l106.330285-70.861715-44.030857-29.579428c-2.68-1.833143-4.491428-1.790857-7.16.021714zm61.432 3.933714v-45.275428l-33.817143 22.712z"/></g></svg>