<svg height="512" viewBox="0 0 512 512" width="512" xmlns="http://www.w3.org/2000/svg"><g transform="translate(32)"><path d="m177.418954 215.384615c-14.548601 0-26.034339 12.751213-26.034339 28.307693 0 15.556479 11.740976 28.307692 26.034339 28.307692 14.5486 0 26.034338-12.751213 26.034338-28.307692.255238-15.55648-11.485738-28.307693-26.034338-28.307693zm93.162092 0c-14.5486 0-26.034338 12.751213-26.034338 28.307693 0 15.556479 11.740976 28.307692 26.034338 28.307692 14.548601 0 26.034339-12.751213 26.034339-28.307692 0-15.55648-11.485738-28.307693-26.034339-28.307693z"/><path d="m395.52 0h-343.04c-28.928 0-52.48 23.552-52.48 52.736v346.112c0 29.184 23.552 52.736 52.48 52.736h290.304l-13.568-47.36 32.768 30.464 30.976 28.672 55.04 48.64v-459.264c0-29.184-23.552-52.736-52.48-52.736zm-98.816 334.336s-9.216-11.008-16.896-20.736c33.536-9.472 46.336-30.464 46.336-30.464-10.496 6.912-20.48 11.776-29.44 15.104-12.8 5.376-25.088 8.96-37.12 11.008-24.576 4.608-47.104 3.328-66.304-.256-14.592-2.816-27.136-6.912-37.632-11.008-5.888-2.304-12.288-5.12-18.688-8.704-.768-.512-1.536-.768-2.304-1.28-.512-.256-.768-.512-1.024-.768-4.608-2.56-7.168-4.352-7.168-4.352s12.288 20.48 44.8 30.208c-7.68 9.728-17.152 21.248-17.152 21.248-56.576-1.792-78.08-38.912-78.08-38.912 0-82.432 36.864-149.248 36.864-149.248 36.864-27.648 71.936-26.882127 71.936-26.882127l2.56 3.074127c-46.08 13.312-67.328 33.536-67.328 33.536s5.632-3.072 15.104-7.424c27.392-12.032 49.152-15.36 58.112-16.128 1.536-.256 2.816-.512 4.352-.512 15.616-2.048 33.28-2.56 51.712-.512 24.32 2.816 50.432 9.984 77.056 24.576 0 0-20.224-19.2-63.744-32.512l3.584-4.098127s35.072-.765873 71.936 26.882127c0 0 36.864 66.816 36.864 149.248 0 0-21.76 37.12-78.336 38.912z"/></g></svg>