<svg height="416" viewBox="0 0 364 416" width="364" xmlns="http://www.w3.org/2000/svg"><g><path d="m144.1529 175c-11.820738 0-21.1529 10.36036-21.1529 23s9.539543 23 21.1529 23c11.820738 0 21.1529-10.36036 21.1529-23 .207381-12.63964-9.332162-23-21.1529-23zm75.6942 0c-11.820738 0-21.1529 10.36036-21.1529 23s9.539543 23 21.1529 23c11.820738 0 21.1529-10.36036 21.1529-23s-9.332162-23-21.1529-23z"/><path d="m321.36 0h-278.72c-23.504 0-42.64 19.136-42.64 42.848v281.216c0 23.712 19.136 42.848 42.64 42.848h235.872l-11.024-38.48 26.624 24.752 25.168 23.296 44.72 39.52v-373.152c0-23.712-19.136-42.848-42.64-42.848zm-80.288 271.648s-7.488-8.944-13.728-16.848c27.248-7.696 37.648-24.752 37.648-24.752-8.528 5.616-16.64 9.568-23.92 12.272-10.4 4.368-20.384 7.28-30.16 8.944-19.968 3.744-38.272 2.704-53.872-.208-11.856-2.288-22.048-5.616-30.576-8.944-4.784-1.872-9.984-4.16-15.184-7.072-.624-.416-1.248-.624-1.872-1.04-.416-.208-.624-.416-.832-.624-3.744-2.08-5.824-3.536-5.824-3.536s9.984 16.64 36.4 24.544c-6.24 7.904-13.936 17.264-13.936 17.264-45.968-1.456-63.44-31.616-63.44-31.616 0-66.976 29.952-121.264 29.952-121.264 29.952-22.464 58.448-21.8417285 58.448-21.8417285l2.08 2.4977285c-37.44 10.816-54.704 27.248-54.704 27.248s4.576-2.496 12.272-6.032c22.256-9.776 39.936-12.48 47.216-13.104 1.248-.208 2.288-.416 3.536-.416 12.688-1.664 27.04-2.08 42.016-.416 19.76 2.288 40.976 8.112 62.608 19.968 0 0-16.432-15.6-51.792-26.416l2.912-3.3297285s28.496-.6222715 58.448 21.8417285c0 0 29.952 54.288 29.952 121.264 0 0-17.68 30.16-63.648 31.616z"/></g></svg>