<svg height="512" viewBox="0 0 512 512" width="512" xmlns="http://www.w3.org/2000/svg"><path d="m256 0c-141.333333 0-256 114.666667-256 256 0 141.466667 114.666667 256 256 256s256-114.533333 256-256c0-141.333333-114.666667-256-256-256zm162.533333 118c28.8 33.866667 47.066667 76.8 50.266667 123.866667-46.133333-2.4-101.333333-2.4-145.6 1.733333-5.6-14.133333-11.333333-28-17.6-41.333333 51.066667-22.133334 90.4-51.2 112.933333-84.266667zm-162.533333-75.3333333c51.733333 0 99.2 18.4 136.133333 49.0666666-23.2 29.3333337-59.6 54.7999997-104.933333 74.1333337-24.8-45.866667-53.333333-85.3333337-83.733333-116.4000003 16.933333-4.2666667 34.4-6.8 52.533333-6.8zm-96.533333 23.3333333c30.8 30.6666667 59.733333 69.733333 85.066666 115.466667-48.133333 14.666666-103.333333 23.066666-162.2666663 23.066666-11.2 0-22.1333334-.4-32.9333334-1.066666 15.3333334-60.133334 55.9999997-110.0000003 110.1333337-137.466667zm-116.4000003 179.866667c12.1333333.533333 24.4.8 36.8.666666 67.2000003-.8 129.7333333-11.333333 183.4666663-28.533333 5.066667 10.533333 9.866667 21.333333 14.4 32.4-7.333333 1.733333-13.866666 3.6-19.066666 5.733333-73.466667 30.8-131.333334 80.533334-162.666667 140.666667-33.0666667-37.6-53.3333333-86.8-53.3333333-140.8 0-3.466667.1333333-6.8.4-10.133333zm212.9333333 223.466666c-49.333333 0-94.666667-16.8-130.8-44.933333 28.4-56.266667 79.066667-102.8 142.933333-131.733333 6-2.8 14-5.066667 23.2-7.066667 7.6 21.066667 14.4 42.933333 20.4 65.6 9.2 35.333333 15.733334 70.266667 19.733334 104.133333-23.466667 8.933334-48.8 14-75.466667 14zm115.333333-34c-4-34.266666-10.533333-69.466666-19.866666-105.2-4.533334-17.333333-9.733334-34.133333-15.333334-50.533333 41.866667-3.466667 92-2.933333 131.866667 0-7.2 65.466667-44 121.733333-96.666667 155.733333z"/></svg>