<svg height="512" viewBox="0 0 512 512" width="512" xmlns="http://www.w3.org/2000/svg"><path d="m256 0c-141.371429 0-256 117.6-256 262.514286 0 116 73.3714286 214.285714 175.085714 249.028571 1.6.342857 2.971429.457143 4.342857.457143 9.485715 0 13.142858-6.971429 13.142858-13.028571 0-6.285715-.228572-22.742858-.342858-44.685715-9.6 2.171429-18.171428 3.085715-25.828571 3.085715-49.257143 0-60.457143-38.285715-60.457143-38.285715-11.6571427-30.285714-28.4571427-38.4-28.4571427-38.4-22.2857143-15.657143-.1142857-16.114285 1.6-16.114285h.1142857c25.714286 2.285714 39.2 27.2 39.2 27.2 12.8 22.4 29.942857 28.685714 45.257143 28.685714 12 0 22.857143-3.885714 29.257143-6.857143 2.285714-16.914286 8.914285-28.457143 16.228571-35.085714-56.8-6.628572-116.5714284-29.142857-116.5714284-129.714286 0-28.685714 9.9428574-52.114286 26.2857144-70.4-2.628572-6.628571-11.428572-33.371429 2.514286-69.485714 0 0 1.828571-.571429 5.714285-.571429 9.257143 0 30.171429 3.542857 64.685715 27.542857 20.457142-5.828571 42.285714-8.685714 64.114285-8.8 21.714286.114286 43.657143 2.971429 64.114286 8.8 34.514286-24 55.428571-27.542857 64.685714-27.542857 3.885715 0 5.714286.571429 5.714286.571429 13.942857 36.114285 5.142857 62.857143 2.514286 69.485714 16.342857 18.4 26.285714 41.828571 26.285714 70.4 0 100.8-59.885714 122.971429-116.914286 129.485714 9.142857 8.114286 17.371429 24.114286 17.371429 48.571429 0 35.085714-.342857 63.428571-.342857 72 0 6.171428 3.542857 13.142857 13.028571 13.142857 1.371429 0 2.971429-.114286 4.571429-.457143 101.828571-34.742857 175.085714-133.142857 175.085714-249.028571 0-144.914286-114.628571-262.514286-256-262.514286z"/></svg>