<svg height="384" viewBox="0 0 384 384" width="384" xmlns="http://www.w3.org/2000/svg"><g><path d="m272 32c21.2 0 41.3 8.4 56.5 23.5s23.5 35.3 23.5 56.5v160c0 21.2-8.4 41.3-23.5 56.5s-35.3 23.5-56.5 23.5h-160c-21.2 0-41.3-8.4-56.5-23.5s-23.5-35.3-23.5-56.5v-160c0-21.2 8.4-41.3 23.5-56.5s35.3-23.5 56.5-23.5zm0-32h-160c-61.6 0-112 50.4-112 112v160c0 61.6 50.4 112 112 112h160c61.6 0 112-50.4 112-112v-160c0-61.6-50.4-112-112-112z"/><path d="m296 112c-13.3 0-24-10.7-24-24s10.7-24 24-24c13.2 0 24 10.7 24 24s-10.8 24-24 24zm-104 16c35.3 0 64 28.7 64 64s-28.7 64-64 64-64-28.7-64-64 28.7-64 64-64m0-32c-53 0-96 43-96 96s43 96 96 96 96-43 96-96-43-96-96-96z"/></g></svg>