<svg height="512" viewBox="0 0 512 512" width="512" xmlns="http://www.w3.org/2000/svg"><g><path d="m362.666667 42.6666667c28.266666 0 55.066666 11.2 75.333333 31.3333333s31.333333 47.066667 31.333333 75.333333v213.333334c0 28.266666-11.2 55.066666-31.333333 75.333333s-47.066667 31.333333-75.333333 31.333333h-213.333334c-28.266666 0-55.0666663-11.2-75.333333-31.333333s-31.3333333-47.066667-31.3333333-75.333333v-213.333334c0-28.266666 11.2-55.0666663 31.3333333-75.333333s47.066667-31.3333333 75.333333-31.3333333zm0-42.6666667h-213.333334c-82.133333 0-149.333333 67.2-149.333333 149.333333v213.333334c0 82.133333 67.2 149.333333 149.333333 149.333333h213.333334c82.133333 0 149.333333-67.2 149.333333-149.333333v-213.333334c0-82.133333-67.2-149.333333-149.333333-149.333333z"/><path d="m394.666667 149.333333c-17.733334 0-32-14.266666-32-32 0-17.733333 14.266666-31.9999997 32-31.9999997 17.6 0 32 14.2666667 32 31.9999997 0 17.733334-14.4 32-32 32zm-138.666667 21.333334c47.066667 0 85.333333 38.266666 85.333333 85.333333s-38.266666 85.333333-85.333333 85.333333-85.333333-38.266666-85.333333-85.333333 38.266666-85.333333 85.333333-85.333333m0-42.666667c-70.666667 0-128 57.333333-128 128s57.333333 128 128 128 128-57.333333 128-128-57.333333-128-128-128z"/></g></svg>