<svg height="512" viewBox="0 0 512 512" width="512" xmlns="http://www.w3.org/2000/svg"><g><path d="m256 139.323077c-64.369231 0-116.676923 52.307692-116.676923 116.676923s52.307692 116.676923 116.676923 116.676923 116.676923-52.307692 116.676923-116.676923-52.307692-116.676923-116.676923-116.676923z"/><circle cx="423.507692" cy="96.492308" r="53.169231"/><path d="m488.984615 149.907692-2.215384-4.923077-3.569231 4.061539c-8.738462 9.846154-19.815385 17.476923-32.123077 22.030769l-3.446154 1.230769 1.353846 3.323077c10.584616 25.476923 16 52.553846 16 80.246154 0 115.323077-93.784615 209.107692-209.107692 209.107692s-208.9846153-93.661538-208.9846153-208.984615 93.7846153-209.1076923 209.1076923-209.1076923c31.261538 0 61.415385 6.7692308 89.6 20.1846154l3.323077 1.6 1.476923-3.3230769c5.169231-12.0615385 13.292308-22.7692308 23.630769-31.0153847l4.184616-3.3230769-4.8-2.4615384c-36.676923-18.9538462-76.184616-28.5538462-117.415385-28.5538462-141.169231 0-256 114.830769-256 256s114.830769 256 256 256 256-114.830769 256-256c0-36.923077-7.753846-72.615385-23.015385-106.092308z"/></g></svg>