<svg height="416" viewBox="0 0 416 416" width="416" xmlns="http://www.w3.org/2000/svg"><g><path d="m208 113.2c-52.3 0-94.8 42.5-94.8 94.8s42.5 94.8 94.8 94.8 94.8-42.5 94.8-94.8-42.5-94.8-94.8-94.8z"/><circle cx="344.1" cy="78.4" r="43.2"/><path d="m397.3 121.8-1.8-4-2.9 3.3c-7.1 8-16.1 14.2-26.1 17.9l-2.8 1 1.1 2.7c8.6 20.7 13 42.7 13 65.2 0 93.7-76.2 169.9-169.9 169.9s-169.8-76.1-169.8-169.8 76.2-169.9 169.9-169.9c25.4 0 49.9 5.5 72.8 16.4l2.7 1.3 1.2-2.7c4.2-9.8 10.8-18.5 19.2-25.2l3.4-2.7-3.9-2c-29.8-15.4-61.9-23.2-95.4-23.2-114.7 0-208 93.3-208 208s93.3 208 208 208 208-93.3 208-208c0-30-6.3-59-18.7-86.2z"/></g></svg>