<svg height="512" viewBox="0 0 512 512" width="512" xmlns="http://www.w3.org/2000/svg"><g transform="translate(23)"><path d="m395.450488 512h-337.0039876c-4.4042935 0-8.4250996-2.490181-10.4006403-6.434909-1.9522989-3.944727-1.5339492-8.657455 1.1039787-12.183272l44.1591431-43.438546v-387.8865457l-32.538316-43.4385454c-2.6495486-3.5258183-3.0678984-8.2385455-1.1039786-12.18327281 1.9755406-3.94472728 5.9963468-6.43490909 10.4006403-6.43490909h127.8290994c6.426317 0 11.620826 5.20145455 11.620826 11.6363636v418.9090914h244.037371c4.474019 0 8.529687 2.571636 10.470365 6.586181 1.929058 4.037819 1.394499 8.820364-1.3945 12.322909l-58.104134 58.181819c-2.207958 2.757817-5.543135 4.363636-9.075867 4.363636z"/><path d="m69.7756097 410.358567c-29.0382829-35.90212-46.5170732-81.505946-46.5170732-131.153116 0-49.647172 17.4787903-95.250998 46.5170732-131.153118v-34.519482c-40.1907512 39.434238-66.20542434 93.240944-69.43836091 153.042953-.22095611 4.182772-.33724879 8.388781-.33724879 12.629647 0 6.855097.30236097 13.640481.88382439 20.344534 4.95406829 56.699788 30.43379511 107.601791 68.89178531 145.328064zm162.8097553-340.2916806c115.420488 0 209.32683 93.8218826 209.32683 209.1385646 0 48.148344-16.536819 92.416006-44.005151 127.806898h28.724292c24.293543-36.703817 38.539396-80.599677 38.539396-127.806898 0-128.132227-104.337796-232.3761827-232.585367-232.3761827z"/><path d="m232.585365 407.414635h134.545464c31.648195-33.351112 51.210635-78.299578 51.210635-127.826559 0-102.5169-83.334829-185.9295395-185.756099-185.9295395zm-162.5365845-217.642147c-14.756 26.646027-23.2195122 57.254677-23.2195122 89.815588s8.4635122 63.169561 23.2195122 89.815588z"/></g></svg>