<svg height="384" viewBox="0 0 349 384" width="349" xmlns="http://www.w3.org/2000/svg"><g><path d="m296.587866 384h-252.7529907c-3.3032201 0-6.3188247-1.867636-7.8004802-4.826182-1.4642242-2.958545-1.1504619-6.493091.827984-9.137454l33.1193573-32.578909v-290.9149095l-24.403737-32.5789091c-1.9871614-2.6443637-2.3009238-6.17890913-.8279839-9.13745458 1.4816554-2.95854546 4.4972601-4.82618182 7.8004802-4.82618182h95.8718243c4.819738 0 8.71562 3.90109091 8.71562 8.72727273v314.18181827h183.028028c3.355514 0 6.397265 1.928727 7.852774 4.939636 1.446793 3.028364 1.045874 6.615273-1.045875 9.242182l-43.578101 43.636364c-1.655968 2.068363-4.157351 3.272727-6.8069 3.272727z"/><path d="m52.3317073 307.768925c-21.7787122-26.92659-34.8878049-61.129459-34.8878049-98.364837 0-37.235379 13.1090927-71.438248 34.8878049-98.364838v-25.8896116c-30.1430634 29.5756786-49.65406828 69.9307076-52.07877071 114.7822146-.16571708 3.137079-.25293659 6.291586-.25293659 9.472235 0 5.141323.22677073 10.230361.66286829 15.258401 3.71555122 42.524841 22.82534631 80.701343 51.66883901 108.996048zm122.1073167-255.2187602c86.565366 0 156.995122 70.3664122 156.995122 156.8539232 0 36.111258-12.402614 69.312005-33.003863 95.855174h21.543219c18.220157-27.527863 28.904547-60.449758 28.904547-95.855174 0-96.09917-78.253347-174.2821368-174.439025-174.2821368z"/><path d="m174.439024 305.560976h100.909098c23.736146-25.013334 38.407976-58.724683 38.407976-95.869919 0-76.887675-62.501122-139.4471546-139.317074-139.4471546zm-121.9024386-163.23161c-11.067 19.98452-17.4146342 42.941008-17.4146342 67.361691s6.3476342 47.377171 17.4146342 67.361691z"/></g></svg>