<svg height="512" viewBox="0 0 512 512" width="512" xmlns="http://www.w3.org/2000/svg"><path d="m475.038857 0h-438.0777141c-20.3851429 0-36.9611429 16.5531429-36.9611429 36.9234286v291.8274284c0 20.384 16.576 36.963429 36.9611429 36.963429h438.0777141c20.385143 0 36.961143-16.579429 36.961143-36.964572v-291.8262854c0-20.3702857-16.576-36.9234286-36.961143-36.9234286zm-187.012571 292.571429h-64.054857v-109.714286l-48.045715 61.574857-48.025143-61.574857v109.714286h-64.0502853v-219.4285719h64.0502853l48.025143 77.6914289 48.045715-77.6914289h64.054857zm95.608 0-79.582857-109.714286h48v-109.7142859h64.049142v109.7142859h48.030858l-80.517715 109.714286z" transform="translate(0 73)"/></svg>