<svg height="512" viewBox="0 0 512 512" width="512" xmlns="http://www.w3.org/2000/svg"><g transform="translate(37)"><path d="m219.333714 512c-6.693971-.00902-13.261372-1.824896-19.009143-5.256l-60.554285-37.074286c-9.044572-5.213714-4.597715-7.089143-1.649143-8.161143 12.074286-4.321142 15.672-6.465142 28.510857-14.04 1.378286-.762285 3.139429-.484571 4.52.368l45.382857 26.861715c1.686857.971428 4.065143.971428 5.635429 0l177.357714-105.424c1.685714-1.002286 2.76-3.024 2.76-5.075429v-213.491428c0-2.114286-1.074286-4.105143-2.798857-5.174858l-177.28-108.196571c-1.689143-1.0217143-3.909714-1.0217143-5.597714 0l-177.1645719 108.234286c-1.7645714 1.032-2.8754285 3.083428-2.8754285 5.137143v213.491428c0 2.072 1.1108571 4.014857 2.8354285 5.016l45.6331429 27.396572c26.982857 13.947428 42.96-.194286 42.96-16.698286v-209.941714c0-3.030858 2.339429-5.402286 5.252571-5.402286h26.067429c2.874286 0 5.253714 2.368 5.253714 5.402286v209.940571c0 37.214857-22.117714 58.569143-56.227428 58.569143-10.4640003 0-18.7394289 0-41.7737146-11.747429l-47.5245714-28.321143c-11.76685714-7.030857-19.048-20.166857-19.048-34.234285v-216.531429c0-14.075428 7.28114286-27.181714 19.0457143-34.190857l181.3542857-108.416c11.459429-6.72 26.713143-6.72 38.093714 0l181.314286 108.416c11.769143 7.027429 19.049143 20.142857 19.049143 34.190857v216.531429c0 14.067428-7.28 27.142857-19.049143 34.232l-181.314286 108.313143c-5.769062 3.444866-12.364117 5.26129-19.083428 5.256z"/><path d="m275.363429 365.712c-73.84 0-96.006858-36.125714-96.006858-67.738286 0-3.004571 2.340572-5.404571 5.213715-5.404571h23.452571c2.608 0 4.830857 1.942857 5.213714 4.589714 3.524572 24.688 19.140572 35.6 62.084572 35.6 38.170286 0 53.818286-11.824 53.818286-32.781714 0-12.105143-3.957715-21.056-63.322286-27.082286-49.630857-5.075428-80.329143-16.426286-80.329143-57.48 0-37.868571 30.852571-59.988571 82.553143-59.988571 52.717714 0 87.385143 16 90.483428 58.090285.116572 1.528-.420571 3.004572-1.418285 4.164572-.995429 1.102857-2.374857 1.745143-3.832 1.745143h-23.532572c-2.452571 0-4.598857-1.785143-5.096-4.243429-5.029714-19.374857-19.394285-26.745143-56.643428-26.745143-41.698286 0-46.566857 14.574857-46.566857 25.836572 0 13.672 5.749714 17.646857 62.050285 25.339428 55.726857 7.614857 82.209143 18.419429 82.209143 58.916572 0 40.892571-32.923428 67.181714-90.371428 67.181714z"/></g></svg>