<svg height="512" viewBox="0 0 512 512" width="512" xmlns="http://www.w3.org/2000/svg"><g><path d="m172.613333 246.741333c5.097803-.921202 10.267634-1.38571 15.448-1.388l-4.162666-.02h138.430666c6.004 0 11.741334-.822666 17.210667-2.338666 25.826667-7.150667 44.46-30.049334 44.46-58.217334v-116.2986663c0-33.1093334-28.2-57.9786667-61.718667-63.4746667-21.241333-3.49866667-52.344-5.10266667-73.452-4.99866667-21.105333.11466667-41.308 1.872-59.036 4.99866667-52.269333 9.0973333-61.793333 28.2333333-61.793333 63.4746667v38.1880003h128v21.333333h-169.5733333c-47.504 0-86.0506667 56.761333-86.41733337 126.989333-.00266666.337334-.00933333.673334-.00933333 1.010667 0 12.697333 1.25333333 24.96 3.58 36.538667 10.6173333 52.888 43.688 91.461333 82.8466667 91.461333h20.2400003v-61.246667c0-35.769333 26.861333-68.977333 65.946666-76.012zm13.594667-162.7386663c-12.789333 0-23.178667-10.38-23.178667-23.204 0-12.8853334 10.365334-23.36 23.178667-23.36 12.765333 0 23.198667 10.4733333 23.198667 23.36.001333 12.824-10.412 23.204-23.198667 23.204z"/><path d="m506.601333 211.390667c-12.228-48.696-43.890666-83.390667-81.028-83.390667h-20.24v54.229333c0 45.22-29.714666 77.965334-65.985333 83.574667-3.661633.571832-7.361986.8598-11.068.861333h-138.478667c-5.871095-.005063-11.718515.744182-17.398666 2.229334-25.496 6.690666-44.402667 27.905333-44.402667 55.42v116.302666c0 33.109334 33.302667 52.568 65.974667 62.068 39.102666 11.374667 81.689333 13.424 128.488 0 31.070666-8.88 61.537333-26.828 61.537333-62.068v-35.284h-128v-21.333333h169.573333c33.653334 0 62.809334-28.486667 77.085334-70.065333 5.973333-17.396 9.341333-37.08 9.341333-57.934667 0-15.690667-1.910667-30.717333-5.398667-44.609333zm-181.445333 213.702666c12.786667 0 23.174667 10.38 23.174667 23.2 0 12.866667-10.388 23.361334-23.174667 23.361334-12.769333 0-23.198667-10.494667-23.198667-23.361334 0-12.84 10.408-23.2 23.198667-23.2z"/></g></svg>