<svg height="416" viewBox="0 0 511 416" width="511" xmlns="http://www.w3.org/2000/svg"><path d="m510.917548 49.2515856c-18.834673 8.3348837-38.968288 13.9636364-60.184356 16.5615222 21.649049-12.9894292 38.318816-33.5560253 46.112474-58.01945029-20.241861 12.01522199-42.648626 20.78308669-66.570825 25.43763209-19.159408-20.4583509-46.437209-33.2312896-76.529386-33.2312896-57.911206 0-104.781396 46.9784355-104.781396 104.889641 0 8.226638.865962 16.236786 2.706131 23.922198-87.13742-4.329809-164.424524-46.1124732-216.057505-109.652431-8.9843552 15.4790698-14.1801269 33.5560254-14.1801269 52.7154334 0 36.3704016 18.6181819 68.5192386 46.7619451 87.3539116-17.3192389-.432981-33.5560254-5.195772-47.627907-13.097675v1.298943c0 50.875264 36.1539112 93.199154 84.1065538 102.832981-8.7678646 2.381395-18.0769555 3.680338-27.6025369 3.680338-6.7112051 0-13.3141649-.649471-19.7006342-1.948414 13.3141649 41.674419 52.0659621 71.983087 97.9619451 72.849049-35.829176 28.143763-81.0756872 44.921776-130.2190276 44.921776-8.443129 0-16.77801268-.541227-25.00465116-1.515434 46.22071886 30.092178 101.31754776 47.411417 160.41945076 47.411417 193.001268 0 298.432135-159.878224 298.432135-298.540381 0-4.5463-.108245-9.0926-.324736-13.530655 20.458351-14.8295986 38.210571-33.23129 52.282453-54.3391124z"/></svg>