<svg height="512" viewBox="0 0 512 512" width="512" xmlns="http://www.w3.org/2000/svg"><g><path d="m260 276.4-43.733333 127.6h-.133334l-33.866666 97.466667c2.4.666666 4.666666 1.2 7.066666 1.866666h.4c21.066667 5.6 43.2 8.666667 66 8.666667 11.333334 0 22.4-.666667 33.2-2.4 14.933334-1.866667 29.333334-5.066667 43.333334-9.466667 3.466666-1.066666 6.933333-2.266666 10.4-3.466666-3.733334-8-11.733334-25.733334-12.133334-26.533334zm-237.6-121.066667c-13.33333333 30.133334-22.4 67.2-22.4 100.666667 0 8.4.4 16.8 1.2 25.066667 9.2 94.933333 70.5333333 174.666666 154.8 210.533333 3.466667 1.466667 7.066667 2.933333 10.666667 4.266667l-124.0000003-340.4c-10.6666667-.4-12.6666667.266666-20.2666667-.133334z"/><path d="m488.266667 148.533333c-5.733334-12.4-12.533334-24.266666-20.133334-35.466666-2.133333-3.2-4.533333-6.4-6.8-9.6-28.666666-38.4000003-67.733333-68.5333337-113.2-86.1333337-28.533333-11.19999997-59.733333-17.3333333-92.266666-17.3333333-80.4 0-152.266667 37.3333333-199.2000003 95.6-8.6666667 10.666667-16.4 22.133333-23.3333334 34.133333 18.9333334.133334 42.4.133334 45.0666667.133334 24.133333 0 61.333333-2.933334 61.333333-2.933334 12.533334-.8 13.866667 17.466667 1.466667 18.933334 0 0-12.533333 1.466666-26.4 2.133333l83.866667 249.333333 50.4-151.066666-35.733334-98.133334c-12.533333-.666666-24.133333-2.133333-24.133333-2.133333-12.533333-.666667-10.933333-19.733333 1.333333-18.933333 0 0 38 2.933333 60.666667 2.933333 24.133333 0 61.333333-2.933333 61.333333-2.933333 12.4-.8 14 17.466666 1.466667 18.933333 0 0-12.4 1.466667-26.266667 2.133333l83.066667 247.466667 23.066667-76.8c11.6-29.866667 17.466666-54.533333 17.466666-74.266667 0-28.4-10.266666-48.133333-19.066666-63.466666-11.6-19.066667-22.533334-35.066667-22.533334-53.866667 0-21.2 16-40.9333333 38.666667-40.9333333h2.933333c34.933334-.9333334 46.4 33.7333333 47.866667 57.3333333v.8c.533333 9.6.133333 16.666667.133333 25.066667 0 23.2-4.4 49.466666-17.466666 82.4l-52 150.4-29.733334 87.6c2.4-1.066667 4.666667-2.133334 7.066667-3.333334 75.6-36.533333 130.666667-109.333333 142.266667-195.6 1.733333-11.333333 2.533333-22.933333 2.533333-34.666666 0-38.533334-8.533333-75.066667-23.733333-107.733334z"/></g></svg>