<svg height="512" viewBox="0 0 512 512" width="512" xmlns="http://www.w3.org/2000/svg"><path d="m309.485714 310.742857 177.371429-310.742857h-118.857143l-177.828571 310.628571c-.457143.8-.457143 1.257143 0 1.942858l113.028571 198.628571c.457143.8.914286.8 1.828571.8h117.828572l-113.485714-199.657143c-.228572-.342857-.114286-1.142857.114285-1.6zm-105.028571-100.228571-67.314286-117.9428574c-.571428-.9142857-1.142857-1.1428572-2.285714-1.1428572h-109.7142859l67.3142858 119.3142856c.1142857.228572.2285714.685714.1142857.914286l-92.5714286 154.057143h110.628571c.914286 0 1.371429-.228572 1.828572-1.028572l92-152.8c.114286-.342857.114286-1.028571 0-1.371428z" transform="translate(13)"/></svg>