<svg height="384" viewBox="0 0 511 384" width="511" xmlns="http://www.w3.org/2000/svg"><path d="m508.606628 84.6346979c0-44.9122807-33.035478-81.04171544-73.855751-81.04171544-55.292008-2.59493178-111.681871-3.59298246-169.269396-3.59298246h-17.964912c-57.487719 0-113.977388.99805068-169.2693955 3.59298246-40.7204678 0-73.75594543 36.32904484-73.75594543 81.24132554-2.49512671 35.530604-3.59298246 71.061209-3.49317739 106.591813-.09980507 35.530604.99805068 71.061208 3.39337232 106.691618 0 44.91228 33.0354776 81.34113 73.7559454 81.34113 58.0865496 2.694737 117.6701756 3.892398 178.2518516 3.792593 60.681482.19961 120.065497-.998051 178.251852-3.792593 40.820273 0 73.855751-36.42885 73.855751-81.34113 2.395321-35.63041 3.493177-71.161014 3.393372-106.791423.19961-35.530604-.898246-71.061209-3.293567-106.6916181zm-301.012086 204.7001951v-196.1169593l144.717349 98.0085773z" transform="translate(-1)"/></svg>