<svg height="512" viewBox="0 0 512 512" width="512" xmlns="http://www.w3.org/2000/svg"><g transform="translate(52 50)"><path d="m54.3001841 44.8147236c3.2941681-.7199739 6.2025749.4939687 8.1215886 2.5499889.8652234.9269954 1.3874708 1.8381478 1.7902269 2.8203168.5804281 1.4154438.8389505 2.8260087 1.061695 4.8277066.231808 2.083147.3866061 4.8857686.4339364 7.1151787l.0175929 1.215691c.0404838 4.0039155-.0567799 7.6550882-.3259329 13.5376768l-.359706 7.5422237c-.2658142 5.7977658-.3475929 8.9683459-.3111613 12.7217949.0708928 7.30389.5255174 14.816287 1.3455352 22.571805l.16887 1.554356c.3102757 2.781833.6891746 5.129975 1.5469289 9.759649l.8783699 4.72462c.7348266 4.018483 1.1032656 6.353357 1.4384897 9.219976l.0944112.861607c.2124689 2.084699.2949548 4.067504.3424816 7.167132l.0343384 2.500879c.0679125 4.231995.2040305 6.201974.6242437 8.375083 1.6082244 8.316842 4.1215162 16.94986 7.5855666 26.42759.9794588 2.679825 2.3267134 5.373754 4.2931364 8.653532l.3581409.592815.1203067-.200409c.9595988-1.619535 1.9854679-3.518807 3.0628899-5.701053l.5064839-1.038935.9712893-2.024326c15.077266-31.534446 23.612593-54.682735 28.320812-79.771286l.063389-.354103c.310957-1.827539.367855-3.667106.289459-7.516535l-.052132-2.466369c-.063644-3.7060633.006475-5.9810313.352537-8.5508524l.127814-.8992133c.174451-1.2740663.313146-3.0076384.495978-6.0605355l.272273-4.7073825.120603-1.9213454c.355019-5.3694718.750153-8.7433706 1.489958-11.5886593.913995-3.5152275 2.202723-6.0610546 5.295902-7.8923339 2.707542-1.6029674 5.910881-1.7249383 8.710417-.4845799 1.783221.790071 3.153746 1.9725178 4.369651 3.4687347 4.922186 6.0569366 6.80376 18.5385513 8.13263 41.2372715l.183623 3.290551c.095341 1.792425.187453 3.659752.280734 5.673784l.645238 14.885416c.233164 5.113407.428476 8.244875.652501 10.235001l.33245 2.866866c.775987 6.489987 1.680971 12.664443 3.373284 23.346933l1.871847 11.76939c2.406047 15.302751 3.55883 23.951151 4.380706 33.823601l.101078 1.241001c3.924011 49.244155 4.198317 71.02082 1.98022 78.666275-.116346.401027-.242202.783383-.378545 1.15044l-.108805.281826.359303 1.587086 2.478301 10.536923c1.069432 4.524444-1.731408 9.059177-6.255852 10.128609s-9.059177-1.731408-10.128609-6.255852l-2.449025-10.39364c-1.007328-4.338243-.910715-4.182664-1.025465-5.499559-.198954-2.283228.19439-4.252464 1.224084-6.118048l.160886-.282159.021154-.090838c.128411-.575057.269186-1.585013.387191-3.101771l.020581-.272939c.171342-2.344877.25655-5.463119.237819-9.448339l-.01811-2.065291c-.152409-12.099439-1.14257-30.305545-3.150928-55.758474l-.200641-2.514563c-.805307-9.810632-1.958361-18.388409-4.480057-34.351152l-2.028347-12.758464c-1.609768-10.235445-2.473599-16.288624-3.26339-23.103654l-.218484-1.933845c-.232309-2.210749-.419531-5.129276-.628307-9.514714l-.12787-2.790708-.069619.292218c-5.341998 22.083004-13.784688 43.686054-26.923026 71.171991l-1.027209 2.141134c-3.1546056 6.552063-6.1709927 11.482252-8.967894 14.867008-1.3224136 1.600359-2.618236 2.882134-3.9057415 3.833686-.8354097.617423-1.7008655 1.126172-2.661 1.508363-1.9700857.784211-4.0859436 1.0486-6.5606637.10762-3.6860726-1.40158-5.8108889-3.610662-8.1818654-7.230904l-1.0724434-1.678432c-3.7337869-5.812403-6.1759393-10.319167-7.9734908-15.237314-3.7515209-10.264258-6.5090253-19.736132-8.3024522-29.010739l-.1106528-.589782c-.5474293-3.013737-.7244998-5.561326-.8071608-10.090559l-.0494885-3.412331c-.0425939-2.563426-.1129776-4.116335-.2741665-5.637951l-.0741163-.650832-.0297519-.239819-.4676556 3.395468c-1.1554523 8.233469-2.6195638 17.701607-4.5671186 29.82785l-2.483578 15.452841c-3.0701613 19.294477-4.5679827 29.883414-5.9136248 42.362095l-1.1723937 11.06248c-.6517846 6.195323-1.2467881 11.928211-1.7863534 17.208299l-.9629184 9.527979 3.1098047.990831.0754851.932278.0022599.295931-.0017099.105524-.060034.853497c-.0011379.005246-.0021428.005907-.003363.006709l-1.3075824 9.350297c-.8517855 6.149308-1.973969 14.31203-3.3661545 24.501464-.192009 1.405318-.7204899 2.681971-1.4930687 3.759791l-.1207935.162988-.0396001.1186-.0907034.249449c-.3123696.831319-.6577735 1.545505-1.3018538 2.39706-.9183428 1.214165-2.091859 2.238536-3.9359609 2.898298-3.0865537 1.104274-6.3940993.313936-8.6464348-1.79943-1.1568515-1.085473-1.7786859-2.185656-2.2021676-3.359897-.1932692-.535901-.3148028-1.023134-.402583-1.512017-.0955572-.532197-.1437012-1.030675-.1702569-1.572806-.0305698-.624077-.0316408-1.351746-.0083042-2.233362l.0272253-.826888c.3152424-8.129149 2.4474561-30.951844 6.7486667-71.451079l.5685231-5.290125c1.3814425-12.490502 2.9698289-23.503022 6.1532127-43.428844l2.6007749-16.174258c3.8956668-24.373721 5.7192369-37.491603 7.0887188-52.451034l.2719661-3.091499c.2280989-2.804375.4102914-5.93935.6449606-10.832566l.5567519-11.6762254c.2224601-4.3928279.3766577-6.7586677.6499524-10.350855l.1268858-1.6122722c1.1489231-14.1168825 3.0512392-24.9401619 6.4055673-33.6682708.290435-.7557247.6384453-1.4616481 1.1434899-2.1891928 1.1607801-1.6721684 2.7801032-3.0284326 5.3031319-3.5798662z"/><path d="m211.473374 161.544116.656911-7.682713c1.49247-17.254993 5.183989-59.4161912 7.669294-85.1693863l.918154-9.4060849c.70331-7.443396.814509-10.3808793.534161-12.8327996l-.153265-1.2251483c-.053177-.5907386.000509-.315251-2.10108-8.6554109-1.135994-4.5081921 1.597713-9.0837086 6.105905-10.219702 4.431783-1.1167393 8.928626 1.5061574 10.158993 5.8782152l1.408816 5.5394203c.053864.2156658.098469.3958373.130447.5274566l.212305.8911264c.334896 1.436986.577421 2.647501.763042 3.8513129l.054014.3611622c.655864 4.5253478.539378 8.2966331-.496285 18.9733816l-.767191 7.8312993c-2.920054 30.2452765-7.537139 83.5359495-8.244604 91.8539775l-.092467 1.097351-.248872 2.622477c-1.459822 15.107048-2.851967 26.063391-4.744448 36.789935l-.111784.630064c-3.941301 22.09225-10.079924 43.806692-24.667133 88.051116l-.184948.548601c-.805846 2.336078-1.6894 4.186022-3.448281 7.475765l-1.052756 1.964107c-1.238287 2.332491-1.78288 3.505275-2.229082 4.820689l-1.179257 3.487684c-3.984889 11.832777-5.292981 16.30847-8.327896 28.009618l-1.504702 5.811964-.100897.380718c-2.123619 7.983185-4.634071 15.147776-10.059164 28.141784l-.525569 1.255362c-1.156735 2.755627-2.066631 4.294522-5.082427 8.80361l-1.300789 1.941458c-4.062668 6.118091-4.903635 8.574639-4.053056 10.391786l.044701.091861c2.096335 4.149657.431789 9.213035-3.717868 11.309371-4.149657 2.096335-9.213034.43179-11.30937-3.717867-2.698874-5.34237-2.775251-10.943895-.808473-16.578101 1.202587-3.445037 2.754434-6.204097 5.707554-10.644806l1.956937-2.925706c1.78264-2.686209 2.430696-3.784704 2.953029-4.986476l.585934-1.39536c5.074263-12.15048 7.351849-18.613353 9.247025-25.672873l.280293-1.057434.695213-2.704793c.373191-1.465997.892949-3.508934 1.112699-4.358638.664625-2.569898 1.300522-4.928952 2.031088-7.504103l.4884-1.70402c1.665744-5.754104 3.71656-12.269757 6.381671-20.182015l.541281-1.601261c.887393-2.616062 1.775863-4.469196 3.764936-8.172898l.851848-1.589607c1.211685-2.28422 1.768278-3.479098 2.2012-4.756305l1.734096-5.272206c13.008737-39.69081 18.666003-59.929483 22.285876-79.984622l.322175-1.815153c1.858341-10.650407 3.225512-21.720366 4.713666-37.517184z"/><path d="m255.898618 82.4980361.235624.0031468c1.456354.0394456 2.816278.4465169 3.99332 1.1299495 1.245153-.3383977 2.587459-.394833 3.93724-.1106561l1.938263.3988057c1.290055.2588211 2.62612.5132749 4.309717.8217498l8.906716 1.6007664c9.168982 1.6721794 13.979802 2.7557229 19.827221 4.5826679 6.974755 2.1791659 15.590582 6.8822601 25.782765 13.6743349 3.129772 2.085682 6.372424 4.347344 9.712391 6.764183l1.572851 1.143049c7.767087 5.669491 14.155369 10.709499 22.710053 17.676495 27.142317 22.104897 48.484223 53.294247 56.669775 84.647664 9.546769 36.56734.976825 70.858152-27.538044 96.92824-28.021495 25.619014-57.454288 41.0046-88.32321 42.602536-5.12379.265234-11.945686-.797937-22.743014-3.1266l-2.461157-.53698-8.213344-1.827262c-2.528035-.556367-4.429517-.95617-6.046099-1.265837l-.684212-.128695c-1.324168-.244188-2.382356-.409171-3.166715-.495132l-.310615-.03121-.187727-.015635-.063619.013112c-2.929323.546085-5.913797-.515131-7.848718-2.708539-2.094446 1.054936-4.616972 1.233195-6.960223.279505-4.306132-1.752571-6.376202-6.66412-4.623632-10.970252 3.178081-7.808663 4.619102-14.871123 4.959621-23.070575l.048745-1.425637c.089964-3.197011.043842-5.92592-.178696-11.339945l-.310842-7.16385c-.260095-6.241353-.340885-10.203805-.264475-15.004951l.04904-2.583353c.189308-8.542415.645568-16.606543 1.624436-30.472614l.831154-11.72969c.580025-8.377458.884154-13.538033 1.112013-19.13282l.117974-3.083192c.526747-14.210316.914103-26.791561 1.383805-45.010397l1.763393-71.6928665c.010258-.380816.020602-.7637635.031048-1.1494054.123742-4.5686417 3.865295-8.190111 8.407177-8.190111zm8.180064 18.2021149-.400954 15.827179-.833333 34.813421c-.61198 24.912489-1.041453 39.710748-1.658345 56.509965l-.168803 4.458473c-.268886 6.608139-.637237 12.567503-1.409517 23.481611l-.653482 9.188958c-.94254 13.457941-1.360268 21.176868-1.520119 29.584419l-.032645 2.020135c-.046848 3.838493.021517 7.256163.223538 12.298442l.373636 8.699176c.236212 5.859149.26962 8.792379.139808 12.704669-.229814 6.926151-1.107617 13.312234-2.860148 19.741803 1.871241-.02846 4.102392.297509 7.258353.888836l.800457.151752c1.34755.258132 2.829309.563385 4.610362.947333l11.091525 2.456242 2.413594.521236c8.497518 1.807346 14.13396 2.67319 17.136743 2.561443l.173598-.007702c26.361669-1.364617 52.435497-14.99435 77.833342-38.214658 23.688006-21.657066 30.64151-49.480037 22.60833-80.24982-7.235856-27.715765-26.523457-55.902926-51.011451-75.846123l-3.228702-2.620318c-7.305164-5.904888-13.143292-10.44097-20.292327-15.614095-2.819846-2.040473-5.556334-3.95729-8.194358-5.733994l-.984615-.659664c-8.959129-5.970368-16.396832-10.030363-21.467255-11.614547l-1.154609-.353787c-4.778357-1.434306-9.267158-2.399159-17.848247-3.949277l-7.825663-1.404737c-1.161624-.212984-2.170465-.402467-3.118713-.586371z"/></g></svg>