<svg height="512" viewBox="0 0 512 512" width="512" xmlns="http://www.w3.org/2000/svg"><g transform="translate(91 89)"><path d="m43.2133716 35.6646177c2.6215769-.5729723 4.9361559.3931119 6.4633524 2.0293414.6885653.7377249 1.1041821 1.4628415 1.4247049 2.2444749.4619184 1.1264436.6676567 2.2490046.844922 3.8420032.1844783 1.6578177.3076703 3.8882102.3453369 5.6624275l.0140008.9674757c.032218 3.1864107-.0451867 6.0921003-.2593851 10.7736036l-.2862625 6.0022801c-.2115413 4.6139993-.2766227 7.1372219-.2476295 10.1243055.0564181 5.8126088.4182191 11.7911514 1.0708087 17.9631767l.1343907 1.2369929c.2469247 2.2138488.5484615 4.0825558 1.2310826 7.7669598l.6990276 3.759965c.5847925 3.198003.8780049 5.056151 1.1447842 7.337475l.0751346.685686c.1690878 1.659054.234732 3.237017.272555 5.703774l.0273273 1.990259c.0540464 3.367922.1623723 4.935677.4967879 6.665089 1.279863 6.61874 3.2800001 13.4891 6.0367734 21.031702.7794766 2.132668 1.8516536 4.27656 3.4165795 6.886685l.2850171.471777.0957429-.159491c.7636715-1.288864 1.5800824-2.80035 2.4375203-4.537033l.4030719-.826809.772975-1.611006c11.9988453-25.095858 18.7914603-43.517815 22.5383721-63.4838775l.0504468-.2818038c.2474666-1.4543984.2927477-2.9183696.230358-5.9818365l-.0414875-1.962795c-.0506495-2.9493724.0051527-4.7598458.2805575-6.8049703l.1017172-.7156152c.1388319-1.0139321.2492087-2.3935498.3947109-4.8231176l.216681-3.7462464.0959791-1.5290521c.2825322-4.2731528.5969897-6.9581812 1.1857435-9.2225294.7273792-2.7975012 1.7529796-4.8235307 4.2146047-6.280906 2.1547255-1.2756795 4.7040195-1.3727468 6.9319565-.3856402 1.419128.6287572 2.509825 1.5697763 3.477471 2.7605012 3.917192 4.8202534 5.414593 14.7534178 6.472139 32.8175965l.146132 2.6186986c.075875 1.4264541.14918 2.912517.223414 4.5153317l.513496 11.846166c.185557 4.06937.340991 6.561467.519276 8.145256l.264572 2.281519c.617548 5.164886 1.337756 10.078665 2.684539 18.580043l1.48966 9.366359c1.914789 12.178291 2.832201 19.060892 3.48627 26.917622l.08044.987618c3.12282 39.189664 3.34112 56.520049 1.575906 62.604483-.092591.319147-.19275.623435-.301255.915548l-.08659.224284.285942 1.26304 1.97229 8.385533c.85108 3.60066-1.377895 7.209507-4.978555 8.060586-3.600659.85108-7.209507-1.377895-8.060586-4.978555l-1.948992-8.271504c-.801656-3.452477-.724769-3.328663-.81609-4.376679-.158332-1.817048.154701-3.384212.974155-4.868888l.128037-.224549.016835-.072291c.102193-.457644.214224-1.26139.308136-2.468462l.016379-.217212c.136357-1.866109.204168-4.347679.189262-7.519212l-.014413-1.643607c-.12129-9.62902-.909284-24.11787-2.507583-44.373913l-.159675-2.001149c-.640882-7.807533-1.55851-14.633931-3.565335-27.33746l-1.614207-10.153488c-1.281091-8.145609-1.968548-12.962872-2.597082-18.386434l-.173875-1.538999c-.184878-1.759367-.333873-4.082-.500022-7.572035l-.101762-2.220912-.055404.232554c-4.251289 17.574177-10.9701813 34.766396-21.4259814 56.640355l-.8174777 1.703965c-2.5105095 5.214287-4.9110217 9.137848-7.1368621 11.831517-1.052408 1.273603-2.0836541 2.29367-3.1082814 3.050938-.6648389.49136-1.353589.896234-2.1176868 1.200391-1.5678408.624094-3.2516906.8345-5.2211314.085647-2.9334638-1.115411-4.624443-2.873451-6.5113222-5.754525l-.8534758-1.335736c-2.971436-4.625648-4.9149586-8.212237-6.3454927-12.126215-2.9855491-8.168539-5.1800363-15.706481-6.6072879-23.087432l-.0880602-.469363c-.4356571-2.398403-.576574-4.425835-.6423576-8.030306l-.0393841-2.715613c-.0338973-2.040035-.0899103-3.275877-.2181882-4.486816l-.0589835-.517947-.0236773-.190853-.3721714 2.702193c-.9195363 6.55239-2.0847109 14.087358-3.6346211 23.737709l-1.9764901 12.297737c-2.443307 15.355002-3.6353087 23.781928-4.7062026 33.712758l-.9330186 8.803783c-.5187057 4.930385-.9922235 9.492753-1.4216223 13.694772l-.7663133 7.582591 2.4748562.788527.0600728.741928.0017985.235509-.0013608.083979-.0477764.679233c-.0009056.004175-.0017053.004701-.0026764.005339l-1.040605 7.441188c-.6778711 4.893764-1.5709312 11.389852-2.6788654 19.498845-.1528053 1.118385-.573383 2.134375-1.1882194 2.992131l-.0961304.129709-.0315146.094385-.072184.198517c-.2485911.661583-.5234717 1.22995-1.036046 1.907637-.730839.966261-1.6647509 1.78148-3.1323309 2.306535-2.4563524.878807-5.0885755.249837-6.8810374-1.432029-.9206498-.863846-1.4155203-1.739398-1.7525371-2.673886-.1538082-.426483-.2505275-.814234-.3203851-1.203299-.0760467-.423535-.1143608-.820235-.1354945-1.251677-.0243281-.496655-.0251804-1.075751-.0066087-1.777362l.0216666-.658056c.2508774-6.46937 1.9477435-24.632211 5.3707487-56.862461l.4524441-4.210006c1.0993847-9.940237 2.3634601-18.704261 4.8968723-34.561702l2.0697582-12.871857c3.1002638-19.397184 4.5515041-29.836705 5.6413702-41.7417741l.216437-2.4602883c.1815266-2.2317881.3265197-4.726675.513275-8.6208127l.4430763-9.2922162c.177039-3.4959164.2997531-5.3787077.5172475-8.2374553l.1009787-1.2830844c.9143402-11.2345492 2.4282484-19.8479711 5.0977021-26.7940067.231135-.6014236.5080899-1.1632141.9100163-1.7422115.9237763-1.3307511 2.2124719-2.4100983 4.2203579-2.8489421z"/><path d="m168.295516 128.560631.522785-6.114086c1.187743-13.731931 4.125541-47.2848103 6.103406-67.7798124l.730688-7.485585c.559711-5.9236307.648206-8.2613494.425099-10.2126456l-.121973-.9750021c-.042319-.4701237.000405-.2508842-1.672089-6.8881808-.904051-3.587726 1.271498-7.2290302 4.859224-8.1330807 3.526917-.8887276 7.105612 1.1986357 8.084767 4.6780228l1.121169 4.4084018c.042867.1716319.078364.3150166.103813.4197624l.168958.7091794c.266518 1.1435876.459525 2.106944.607246 3.064966l.042986.2874215c.521952 3.6013789.429249 6.6026569-.394956 15.099466l-.610549 6.2323334c-2.323847 24.0699069-5.998233 66.4798863-6.56125 73.0995693l-.073588.873298-.198058 2.087029c-1.161761 12.022546-2.269663 20.741863-3.775744 29.278301l-.08896.50142c-3.136581 17.581535-8.021843 34.862402-19.630689 70.073161l-.147186.43659c-.641311 1.859107-1.344464 3.331336-2.744223 5.949391l-.837808 1.563083c-.985459 1.856252-1.418859 2.789581-1.773956 3.836418l-.938481 2.775582c-3.171269 9.416803-4.212279 12.978666-6.627537 22.290716l-1.197478 4.625299-.080296.302984c-1.690026 6.353208-3.687903 12.054959-8.005321 22.395898l-.41826.999047c-.920557 2.192993-1.644674 3.417682-4.044715 7.006121l-1.035199 1.545058c-3.233167 4.868922-3.902429 6.823901-3.225517 8.27003l.035573.073105c1.668314 3.302395.343629 7.331951-2.958767 9.000265-3.302395 1.668313-7.331951.343628-9.000264-2.958767-2.147828-4.251585-2.208611-8.70941-.643402-13.193245.957047-2.741642 2.192043-4.937367 4.542206-8.471389l1.557377-2.328346c1.418667-2.137748 1.934405-3.011956 2.350091-3.968355l.466299-1.110461c4.038219-9.669639 5.850776-14.812947 7.359002-20.431079l.223064-.841532.553266-2.152538c.296995-1.166675.710631-2.792493.885513-3.468707.528924-2.045186 1.034986-3.922577 1.616388-5.971943l.38868-1.356099c1.325639-4.579252 2.957726-9.764564 5.078685-16.061325l.430764-1.274321c.706209-2.081925 1.413274-3.556693 2.996225-6.504186l.677921-1.265048c.964288-1.817836 1.407237-2.768748 1.751767-3.785179l1.380035-4.195747c10.352661-31.586886 14.854847-47.693301 17.735627-63.653655l.256395-1.444541c1.478912-8.475846 2.566939-17.285582 3.751247-29.857063z"/><path d="m203.650176 65.6538895.187515.0025043c1.158955.0313905 2.241174.3553226 3.177866.8991748.990436-.2692139 2.058972-.3142152 3.133461-.087997l1.542517.3173791c1.026656.2059759 2.089928.4084762 3.429774.6539679l7.088176 1.2739277c7.296892 1.33076 11.125457 2.1930696 15.778971 3.6469956 5.550675 1.7342318 12.407354 5.4770655 20.518535 10.8823597 2.490747 1.6598345 5.071325 3.4597187 7.72935 5.3830963l1.251713.9096654c6.181231 4.5119157 11.265177 8.5228732 18.073197 14.0673737 21.600498 17.5916 38.584892 42.412823 45.099148 67.364614 7.597545 29.101154.777381 56.390594-21.915427 77.137787-22.300169 20.388218-45.723482 32.632431-70.2897 33.904107-4.077634.211079-9.50666-.635018-18.09943-2.488222l-1.958646-.427342-6.536374-1.454178c-2.01187-.44277-3.525115-.760943-4.811628-1.007383l-.544513-.102419c-1.053804-.19433-1.895935-.325628-2.520147-.394038l-.247195-.024838-.149397-.012442-.050629.010435c-2.33122.434586-4.70633-.40995-6.246186-2.155509-1.666253.839492-3.674042.981502-5.53912.222426-3.426922-1.394738-5.074333-5.303465-3.679596-8.730386 2.529192-6.214319 3.67599-11.834792 3.946984-18.360109l.038793-1.134556c.071594-2.544258.03489-4.715988-.142212-9.024597l-.247375-5.701162c-.20699-4.967016-.271284-8.120429-.210475-11.941294l.039027-2.055894c.150656-6.798256.513758-13.21588 1.292765-24.250827l.661452-9.334765c.461598-6.66698.703631-10.773888.884966-15.226351l.093886-2.453677c.419198-11.308906.727465-21.321359 1.101265-35.820339l1.40335-57.0548803c.008164-.3030624.016396-.607821.024709-.9147241.098477-3.6358331 3.076093-6.5178841 6.69063-6.5178841zm6.508746 14.4854521-.317946 12.5958653-.663186 27.7053441c-.487028 19.825948-.828813 31.602753-1.31975 44.971968l-.134338 3.548158c-.213986 5.258914-.507128 10.001516-1.121726 18.687222l-.520057 7.31279c-.750096 10.710148-1.082533 16.853053-1.209747 23.543981l-.02598 1.607671c-.037282 3.054763.017125 5.774626.177898 9.787391l.297347 6.923011c.187984 4.662849.214571 6.997182.111263 10.110676-.182888 5.511878-.881438 10.593975-2.276085 15.710669 1.488606-.022395 3.26435.237026 5.776281.707682l.637022.120768c1.072413.205427 2.251632.448354 3.669035.753909l8.826899 1.954736 1.920795.414812c6.762526 1.438328 11.24814 2.127387 13.637825 2.038456l.138154-.006128c20.97924-1.085995 41.72941-11.93286 61.941616-30.41213 18.851475-17.235206 24.385239-39.377385 17.992244-63.864706-5.758466-22.056862-21.107995-44.488871-40.59612-60.360139l-2.569478-2.085312c-5.813622-4.699249-10.459743-8.309171-16.149114-12.4260662-2.2441-1.6238568-4.421862-3.1493044-6.521264-4.5632478l-.783579-.5249765c-7.129888-4.7513597-13.048988-7.9824-17.08415-9.2431309l-.918865-.281552c-3.80273-1.1414546-7.375024-1.9093082-14.204058-3.1429282l-6.227847-1.1179232c-.924915-.169583-1.728118-.3204447-2.483089-.4668696z"/></g></svg>