<svg xmlns="http://www.w3.org/2000/svg" width="500" height="500" viewBox="0 0 500 500">
  <path fill="#1E252D" d="M242.748389,289.99017 C273.467778,281.813207 282.829877,271.884037 283.122443,241.512458 L283.415009,38.5485422 C283.415009,33.8759917 278.733959,31.8317508 278.733959,31.8317508 C246.551741,118.565971 211.151302,208.512569 178.676519,295.246789 C178.676519,295.246789 100.561501,117.689868 63.9907996,30.3715787 C63.9907996,30.3715787 59.0171842,32.4158196 59.0171842,37.672439 L59.0171842,175.512681 C59.0171842,214.061223 69.8421118,246.185008 96.7581481,274.804381 C114.312085,293.494583 115.189782,318.901577 100.854067,337.591779 C83.8852612,359.49436 55.5063968,366.79522 31.5160167,355.113844 C7.81820208,343.724502 -4.76211924,320.653783 1.67432423,296.414927 C4.01484912,287.945929 8.98846453,279.184897 15.1323424,272.76014 C41.7558131,245.60094 51.4104783,212.601051 51.4104783,175.804715 L51.4104783,32.707854 C51.4104783,11.389342 43.8037724,7.00882586 22.4464827,2.33627529 L20.691089,0 L123.089053,0 C138.009899,0.584068822 150.00509,11.0973076 156.441533,24.5308905 L222.268796,165.291477 L274.930606,29.7875099 C284.292705,5.54865381 292.484543,0 318.815448,0 L405.707434,0 L403.659475,2.33627529 C378.791398,2.33627529 373.525217,7.88492909 372.940086,37.0883702 L372.354955,244.432802 C372.354955,263.707073 367.088774,278.892862 346.316615,286.777792 L403.952041,286.777792 L406,289.99017 L242.748389,289.99017 Z" transform="translate(47 70)"/>
</svg>
