<svg xmlns="http://www.w3.org/2000/svg" width="500" height="445"><path fill="#1E252D" d="M298.951 357.467c37.832-10.08 49.362-22.32 49.722-59.758l.36-250.19c0-5.76-5.765-8.28-5.765-8.28-39.633 106.916-83.23 217.792-123.223 324.708 0 0-96.2-218.872-141.239-326.508 0 0-6.125 2.52-6.125 9v169.913c0 47.518 13.331 87.117 46.48 122.396 21.617 23.039 22.698 54.358 5.044 77.397-20.898 26.999-55.847 35.999-85.392 21.6-29.185-14.04-44.678-42.48-36.751-72.358 2.882-10.44 9.008-21.24 16.574-29.16 32.787-33.478 44.677-74.156 44.677-119.515V40.32c0-26.28-9.367-31.68-35.67-37.44L25.482 0h126.106c18.375.72 33.147 13.68 41.074 30.239l81.068 173.514 64.854-167.034C350.114 6.839 360.203 0 392.63 0h107.01l-2.522 2.88c-30.626 0-37.112 6.84-37.832 42.838l-.72 255.591c0 23.76-6.486 42.479-32.068 52.198h70.98l2.522 3.96H298.951z"/></svg>